<svg width="138" height="64" viewBox="0 0 138 64" fill="none" xmlns="http://www.w3.org/2000/svg">
<g clip-path="url(#clip0_42_900)">
<path d="M0 20.6409V41.2816H2.07H4.14V31.7924V22.3033H16.56H28.98V31.7924V41.2816H31.05H33.12V20.6409V0.000228882H31.05H28.98V9.21235V18.4245H16.56H4.14V9.21235V0.000228882H2.07H0V20.6409Z" fill="#191919"/>
<path d="M132.618 7.05041C132.618 7.11968 132.784 7.20279 133.005 7.2305L133.377 7.27206L133.419 8.54652C133.474 10.2504 133.722 10.2227 133.722 8.51881V7.20279H134.136C134.371 7.20279 134.55 7.13353 134.55 7.06426C134.55 6.98115 134.136 6.92574 133.584 6.92574C133.06 6.92574 132.618 6.98115 132.618 7.05041Z" fill="#191919"/>
<path d="M135.019 7.10646C134.881 7.49434 135.033 9.7385 135.213 9.80776C135.337 9.84932 135.378 9.5307 135.378 8.56101L135.392 7.2727L135.861 8.49174C136.11 9.17053 136.358 9.75235 136.399 9.79391C136.551 9.94629 136.717 9.66923 137.103 8.57486L137.517 7.43893L137.586 8.58871C137.628 9.33676 137.71 9.7662 137.835 9.80776C137.959 9.84932 138 9.503 138 8.38092C138 6.94023 138 6.91252 137.697 6.95408C137.448 6.98179 137.31 7.21728 136.993 8.06231C136.772 8.65798 136.537 9.11512 136.482 9.07356C136.427 9.04586 136.22 8.54715 135.999 7.96534C135.709 7.16187 135.571 6.92638 135.364 6.92638C135.213 6.92638 135.061 7.00949 135.019 7.10646Z" fill="#191919"/>
<path d="M119.122 8.46387C119.163 8.58855 119.632 8.71323 120.488 8.82405C123.469 9.22578 126.229 10.5279 128.533 12.6197C132.135 15.889 134.136 21.1531 133.612 26.0015C133.239 29.3816 132.149 31.7505 129.858 34.0777C127.126 36.8621 124.421 38.1089 121.026 38.1228C118.404 38.1366 116.237 37.5132 114.195 36.1418C111.959 34.6457 110.414 32.2492 109.558 28.9799C109.186 27.5808 109.158 25.2396 109.489 23.9652C110.441 20.308 113.298 17.2881 116.624 16.4154C117.755 16.1106 120.101 16.1106 121.233 16.4154C123.648 17.0388 125.47 18.5903 126.601 20.9453C127.36 22.5383 127.567 23.4111 127.54 25.0041C127.512 27.9409 125.939 30.573 123.441 31.8336C122.323 32.3877 121.343 32.5816 119.936 32.5262C118.749 32.4847 118.487 32.4154 117.562 31.9721C114.65 30.5868 113.174 27.276 114.126 24.2284C115.575 19.5323 121.757 18.8119 123.758 23.1063C124.09 23.7989 124.131 24.0621 124.131 25.3505C124.131 26.6111 124.09 26.8881 123.8 27.4284C123.427 28.1626 122.503 29.16 121.923 29.4647C121.261 29.8249 121.757 29.8249 122.503 29.4786C125.401 28.121 126.215 23.8128 124.09 20.9868C123.386 20.0587 122.309 19.1998 121.343 18.8396C120.157 18.3686 118.169 18.2994 116.927 18.6873C112.732 19.9617 110.497 24.7963 112.001 29.3678C112.898 32.0691 115.161 34.3409 117.852 35.2137C118.97 35.5738 121.012 35.6985 122.171 35.463C124.338 35.0474 126.546 33.8145 128.023 32.2353C131.21 28.7998 131.762 23.5496 129.444 18.7565C127.636 15.0163 123.772 12.6197 119.163 12.3704C116.638 12.2318 114.457 12.8414 112.263 14.2682C111.035 15.0855 109.351 16.6509 108.44 17.8699C107.516 19.089 106.467 21.2777 106.122 22.7184C105.156 26.7912 106.081 31.7782 108.509 35.3937C109.213 36.4466 110.911 38.1505 111.987 38.857C114.899 40.7963 118.004 41.6829 121.288 41.5167C124.945 41.3366 128.768 39.4942 131.597 36.5297C133.377 34.6734 134.55 32.7479 135.212 30.5868C137.2 24.1453 135.626 17.5929 130.976 12.8691C128.064 9.91842 124.959 8.53314 120.902 8.35305C119.37 8.28379 119.066 8.29764 119.122 8.46387Z" fill="#191919"/>
<path d="M50.8816 10.3336C43.6228 11.6496 38.917 17.7587 38.917 25.8488C38.917 33.8557 43.6228 39.9786 50.8264 41.3501C52.372 41.641 55.2286 41.6133 56.788 41.2947C59.9758 40.6436 62.8048 38.7596 64.5988 36.1276L65.206 35.2548L65.2474 38.2609L65.275 41.2808H67.138H69.001V25.7657V10.2367L67.0414 10.2782L65.068 10.3198L65.0266 13.2012L64.999 16.0964L64.3918 15.2791C63.55 14.1431 61.8802 12.5916 60.7624 11.9267C59.5756 11.2202 57.9334 10.6107 56.443 10.3336C55.0492 10.0566 52.3582 10.0704 50.8816 10.3336ZM57.133 14.1293C60.9418 15.2237 63.7018 18.2713 64.7506 22.5241C65.137 24.131 65.1646 27.2202 64.8058 28.8825C63.9226 32.9691 61.2592 36.1276 57.685 37.3189C54.5938 38.3579 51.1024 38.0115 48.37 36.4046C47.2246 35.7258 45.5272 34.0496 44.8786 32.9414C44.161 31.7362 43.5124 30.1016 43.2502 28.8825C42.9328 27.3726 42.9328 24.2973 43.2502 22.7873C44.299 17.9665 47.5696 14.6834 52.1374 13.8522C53.2414 13.6444 55.9738 13.7968 57.133 14.1293Z" fill="#191919"/>
<path d="M100.808 10.3343C99.3453 10.5975 98.5311 10.8746 97.2891 11.5118C95.5365 12.4122 94.1565 13.756 93.1629 15.5153L92.7351 16.2772L92.7075 13.2988L92.6661 10.3205L90.7755 10.2789L88.8711 10.2373V25.7663V41.2815H90.8721H92.8731V32.7205C92.8731 23.5083 92.9283 22.5386 93.6045 20.5438C94.4463 18.0642 96.0747 16.1109 98.1447 15.1274C99.5937 14.4209 100.918 14.13 102.588 14.13H103.913V12.1213V10.1127L102.919 10.1265C102.367 10.1265 101.415 10.2235 100.808 10.3343Z" fill="#191919"/>
<path d="M77.0049 25.7663V41.2815H79.0059H81.0069V25.7663V10.2512H79.0059H77.0049V25.7663Z" fill="#191919"/>
<path d="M96.5862 52.4469C95.1096 52.9594 93.9228 54.2754 93.4122 55.9932C93.1638 56.8105 93.1224 57.1984 93.1776 58.5005C93.2742 60.5923 93.5916 61.4235 94.7232 62.5594C95.772 63.5984 96.4482 63.8616 98.1042 63.8616C99.6222 63.8616 100.643 63.4183 101.596 62.3516C103.114 60.6616 103.514 57.3369 102.479 55.0512C102.023 54.0399 101.03 53.0148 100.147 52.6269C99.2082 52.2252 97.497 52.1282 96.5862 52.4469ZM99.5118 53.7629C101.637 54.8295 102.258 58.9023 100.671 61.3127C99.4566 63.1689 96.9174 63.2382 95.565 61.4512C94.3506 59.8581 94.2954 56.6166 95.4546 54.8988C95.9652 54.1369 96.5034 53.7352 97.2762 53.5274C98.0214 53.3334 98.8218 53.4166 99.5118 53.7629Z" fill="#191919"/>
<path d="M12.9296 52.4615C12.8744 52.5031 12.833 55.0659 12.833 58.1412V63.7239H13.5368H14.2268L14.1854 59.0139C14.1578 56.4234 14.1578 54.304 14.1716 54.304C14.1992 54.304 14.4338 54.7611 14.7098 55.3014C14.9858 55.8555 16.2002 57.975 17.4146 60.0113L19.6364 63.7239H20.3678H21.113V58.0442V52.3646H20.4092H19.6916L19.7606 57.0191L19.8296 61.6598L19.112 60.2745C18.7118 59.5126 17.4836 57.4208 16.3934 55.62L14.42 52.3646H13.7162C13.3298 52.3646 12.971 52.4061 12.9296 52.4615Z" fill="#191919"/>
<path d="M27.4906 56.6858L27.532 61.0217L27.8908 61.7837C28.6222 63.3213 29.5054 63.8477 31.3684 63.8616C32.8312 63.8616 33.5488 63.5707 34.3492 62.6702C35.3014 61.5759 35.3842 61.1464 35.4394 56.478L35.4808 52.3637H34.8046H34.1146L34.0594 56.4088L34.018 60.4676L33.604 61.2988C33.3004 61.9222 33.052 62.2131 32.638 62.4347C31.6306 63.0027 30.3472 62.7811 29.6296 61.936C28.9396 61.1049 28.843 60.4399 28.843 56.2148V52.3637H28.1392H27.4492L27.4906 56.6858Z" fill="#191919"/>
<path d="M40.5732 52.9879V53.6113H42.2292H43.8852V58.6676V63.7239H44.5752H45.2652V58.6676V53.6113H46.9212H48.5772V52.9879V52.3646H44.5752H40.5732V52.9879Z" fill="#191919"/>
<path d="M54.0671 52.4615L53.6807 52.517V58.1273V63.7239H54.3707H55.0607V61.2858V58.8477L56.2475 58.8892C57.3929 58.9447 57.4343 58.9585 57.8759 59.4434C58.1795 59.7758 58.4003 60.2191 58.5521 60.8286C58.6763 61.3135 58.8971 62.1447 59.0213 62.6849L59.2697 63.6546L60.0011 63.6962C60.3875 63.7239 60.7187 63.7239 60.7187 63.6962C60.7187 63.433 59.6975 59.7343 59.5457 59.4434C59.4353 59.2217 59.1455 58.8754 58.9109 58.6815C58.6763 58.4737 58.4969 58.2936 58.5245 58.2659C58.5521 58.252 58.8143 58.0858 59.1041 57.9195C60.5255 57.0607 60.8429 54.775 59.7389 53.4312C59.0765 52.6278 58.1519 52.3646 56.1233 52.3784C55.1987 52.3923 54.2741 52.4338 54.0671 52.4615ZM57.8207 53.6944C58.9247 54.1377 59.3387 55.3983 58.7591 56.5204C58.2899 57.4208 57.7793 57.6702 56.3165 57.6841L55.1297 57.6979L55.0883 55.7585C55.0745 54.7057 55.0883 53.7499 55.1159 53.6529C55.2263 53.3897 57.1169 53.4174 57.8207 53.6944Z" fill="#191919"/>
<path d="M66.3359 52.4615C66.2807 52.5031 66.2393 55.0659 66.2393 58.1412V63.7239H66.9983H67.7573V58.0442V52.3646H67.0949C66.7223 52.3646 66.3773 52.4061 66.3359 52.4615Z" fill="#191919"/>
<path d="M72.8643 52.9879V53.5975L74.4927 53.639L76.1073 53.6806L76.1487 58.6953L76.1763 63.7239H76.8663H77.5563V58.6676V53.6113H79.2123H80.8683V52.9879V52.3646H76.8663H72.8643V52.9879Z" fill="#191919"/>
<path d="M85.9746 58.0442V63.7239H86.6646H87.3546V58.0442V52.3646H86.6646H85.9746V58.0442Z" fill="#191919"/>
<path d="M108.745 58.0442V63.7239H109.449H110.167L110.098 59.0278L110.029 54.3178L110.953 56.0079C111.464 56.936 112.692 59.0555 113.699 60.7178L115.535 63.7239H116.28H117.025L116.998 58.0719L116.956 52.4338L116.28 52.3923L115.618 52.3507L115.673 57.033L115.728 61.7152L115.093 60.4685C114.486 59.3048 113.658 57.878 111.298 54.0269L110.318 52.4338L109.532 52.3923L108.745 52.3507V58.0442Z" fill="#191919"/>
</g>
<defs>
<clipPath id="clip0_42_900">
<rect width="138" height="64" fill="white"/>
</clipPath>
</defs>
</svg>
