<svg width="90" height="90" viewBox="0 0 90 90" fill="none" xmlns="http://www.w3.org/2000/svg">
<g id="licenses-logo3.svg">
<path id="Vector" d="M89 44.5C89 69.0766 69.0767 89 44.5 89C19.9233 89 0 69.0766 0 44.5C0 19.9233 19.9233 0 44.5 0C69.0767 0 89 19.9233 89 44.5ZM17.2646 44.5C17.2646 59.5417 29.4582 71.7355 44.5 71.7355C59.5417 71.7355 71.7355 59.5417 71.7355 44.5C71.7355 29.4582 59.5417 17.2645 44.5 17.2645C29.4582 17.2645 17.2646 29.4582 17.2646 44.5Z" fill="#A1203E"/>
<path id="Vector_2" d="M75.3106 58.714C75.688 57.9364 76.2593 57.4174 77.0243 57.1572C77.7821 56.8994 78.5412 56.9587 79.3015 57.3349C80.0668 57.7135 80.5782 58.283 80.8359 59.0431C81.1011 59.8131 81.0448 60.5868 80.6674 61.3645C80.4391 61.835 80.1183 62.2138 79.7053 62.5008C79.2947 62.7952 78.8489 62.9616 78.368 63L78.2893 61.8647C78.5824 61.85 78.8503 61.7553 79.0933 61.5807C79.3411 61.4085 79.5372 61.1738 79.6814 60.8766C79.9266 60.3714 79.9679 59.8851 79.8055 59.4178C79.6356 58.9529 79.303 58.5979 78.8075 58.3527C78.317 58.11 77.8378 58.0633 77.3698 58.2126C76.9044 58.3694 76.5491 58.7003 76.3039 59.2055C76.1597 59.5027 76.0937 59.8017 76.1058 60.1026C76.1205 60.4108 76.2106 60.6826 76.3761 60.9181L75.4393 61.551C75.1747 61.1437 75.0294 60.6848 75.0033 60.1744C74.9798 59.6714 75.0822 59.1845 75.3106 58.714Z" fill="#F4EEEE"/>
<path id="Vector_3" d="M73.1803 67.1474L71.3831 69.3698L71.044 69.0909C70.4161 68.5747 70.0714 67.9538 70.0098 67.2284C69.9482 66.5031 70.1769 65.8195 70.6958 65.1779C71.2488 64.4941 71.9277 64.1071 72.7324 64.0169C73.538 63.9344 74.2588 64.1546 74.8951 64.6779C75.5356 65.2046 75.8984 65.872 75.9836 66.6801C76.0655 67.4924 75.8402 68.2278 75.3077 68.8863C74.9766 69.2958 74.5806 69.5957 74.12 69.7862C73.6593 69.9766 73.1935 70.0398 72.7225 69.9759L72.8998 68.8776C73.1651 68.9201 73.4413 68.8802 73.7284 68.7578C74.0155 68.6355 74.2632 68.4456 74.4714 68.188C74.8162 67.7617 74.9597 67.2999 74.9019 66.8025C74.8525 66.3121 74.6164 65.893 74.1936 65.5454C73.7792 65.2046 73.325 65.0595 72.8311 65.1101C72.3413 65.1641 71.9103 65.4213 71.5383 65.8813C71.2686 66.2148 71.1166 66.5536 71.0822 66.8979C71.0477 67.2421 71.13 67.5627 71.3288 67.8597L72.4143 66.5174L73.1803 67.1474Z" fill="#F4EEEE"/>
<path id="Vector_4" d="M68.4636 76.2841L67.5389 77L64 72.4536L64.8922 71.7628L67.1875 74.7115L66.8274 71.6074L66.9316 71.5268L69.8526 72.6379L67.5624 69.6958L68.4611 69L72 73.5464L71.0753 74.2624L68.0928 73.1259L68.4636 76.2841Z" fill="#F4EEEE"/>
<path id="Vector_5" d="M65 77.891L62.976 78.7935C62.459 79.024 61.9325 79.0615 61.3967 78.9061C60.8659 78.7484 60.4739 78.4389 60.2207 77.9778C59.9674 77.5166 59.9322 77.0481 60.1149 76.5723C60.3029 76.0942 60.6554 75.7399 61.1724 75.5095L62.1263 75.0842L61.2437 73.4771L62.3138 73L65 77.891ZM62.6213 75.9856L61.6674 76.4108C61.4399 76.5122 61.2896 76.6662 61.2164 76.8728C61.1458 77.0841 61.168 77.2945 61.2832 77.5041C61.4008 77.7184 61.573 77.862 61.7997 77.9349C62.0264 78.0078 62.2534 77.9935 62.4809 77.8921L63.4348 77.4669L62.6213 75.9856Z" fill="#F4EEEE"/>
<path id="Vector_6" d="M48.2654 80.4557C48.1568 79.7235 48.2866 79.0476 48.6546 78.4282L48 77.9081L48.663 77.0778L49.3537 77.6253C49.7407 77.3136 50.1822 77.1181 50.6785 77.0388C51.4621 76.9136 52.1755 77.0911 52.8188 77.5712C53.4578 78.0576 53.8387 78.7158 53.9617 79.5456C54.0847 80.3753 53.9115 81.1191 53.4423 81.777C52.9738 82.4404 52.3451 82.835 51.5563 82.9611C50.7676 83.0871 50.0538 82.9069 49.4148 82.4205C48.7715 81.9404 48.3883 81.2854 48.2654 80.4557ZM50.8413 78.137C50.6324 78.1704 50.4339 78.2382 50.2458 78.3405L51.2916 79.1726L50.6286 80.0031L49.5105 79.1158C49.3393 79.4762 49.2848 79.8653 49.3467 80.2829C49.427 80.8252 49.6631 81.2455 50.0549 81.5438C50.4467 81.8421 50.8934 81.9512 51.3948 81.871C51.8963 81.7908 52.2906 81.5474 52.5779 81.1407C52.8652 80.7339 52.9687 80.2594 52.8882 79.717C52.8086 79.1802 52.573 78.7625 52.1812 78.4642C51.7894 78.1661 51.3428 78.057 50.8413 78.137Z" fill="#F4EEEE"/>
<path id="Vector_7" d="M43.2184 78.0069C43.7697 78.0479 44.2122 78.2619 44.5456 78.6488C44.8791 79.0359 45.029 79.5326 44.9954 80.1392L44.7816 84L43.8132 83.9279L44.0221 80.1573C44.039 79.8513 43.9769 79.6052 43.8358 79.4191C43.6897 79.2381 43.4634 79.1362 43.1572 79.1134C42.8508 79.0906 42.6176 79.1583 42.4574 79.3164C42.2923 79.4798 42.2012 79.7144 42.1843 80.0205L41.9755 83.7911L41 83.7184L41.2138 79.8576C41.2474 79.2511 41.4509 78.7806 41.8243 78.4463C42.1976 78.1118 42.6624 77.9654 43.2184 78.0069Z" fill="#F4EEEE"/>
<path id="Vector_8" d="M34 76L35.133 76.306L35.1862 77.3186L37.2934 77.8878L37.8746 77.0467L39 77.3507L35.6832 82L34.3917 81.6511L34 76ZM35.3667 80.6549L36.6909 78.7469L35.2408 78.3552L35.3667 80.6549Z" fill="#F4EEEE"/>
<path id="Vector_9" d="M29 79.5484L30.7359 75.7552L29.0708 74.8815L29.4741 74L32 75.3253L29.8607 80L29 79.5484Z" fill="#F4EEEE"/>
<path id="Vector_10" d="M27 72.5826L23.9105 77L23 76.4175L26.0894 72L27 72.5826Z" fill="#F4EEEE"/>
<path id="Vector_11" d="M21.2767 76L18 73.2446L18.7391 72.4421L19.9417 73.4533L23.122 70L24 70.7383L20.8197 74.1916L22.0158 75.1975L21.2767 76Z" fill="#F4EEEE"/>
<path id="Vector_12" d="M14.7477 69.0515L14 68.0515L17.7081 67.4001L19.3434 66L20 66.8781L18.3647 68.2782L16.9523 72L16.2047 71.0001L17.2253 68.5283L14.7477 69.0515Z" fill="#F4EEEE"/>
<path id="Vector_13" d="M18.3746 25.8066C17.8503 26.4873 17.1874 26.8773 16.3862 26.9765C15.5926 27.0748 14.8607 26.8644 14.1906 26.3452C13.5162 25.8226 13.1283 25.1655 13.027 24.3739C12.9204 23.5713 13.1292 22.8296 13.6536 22.1489C13.9709 21.7369 14.3604 21.4328 14.8221 21.2367C15.2828 21.0329 15.7527 20.9607 16.2315 21.0202L16.0828 22.1408C15.7928 22.0961 15.5114 22.1342 15.2387 22.2553C14.9617 22.373 14.7229 22.5619 14.5225 22.8221C14.1819 23.2644 14.0447 23.7293 14.111 24.2168C14.1849 24.7033 14.4403 25.1158 14.877 25.4541C15.3093 25.7891 15.7694 25.931 16.2575 25.8799C16.7446 25.8211 17.1585 25.5705 17.4992 25.1283C17.6995 24.8681 17.8236 24.5904 17.8716 24.2952C17.9185 23.9923 17.8843 23.7096 17.7688 23.4472L18.8125 23.0198C18.9908 23.4695 19.0419 23.9453 18.966 24.4473C18.889 24.9416 18.6918 25.3947 18.3746 25.8066Z" fill="#F4EEEE"/>
<path id="Vector_14" d="M21.8568 17.8284L24.0597 16.0116L24.337 16.3531C24.8506 16.9857 25.0658 17.6636 24.9826 18.387C24.8994 19.1105 24.5397 19.7344 23.9037 20.2589C23.2259 20.818 22.4834 21.0607 21.6762 20.9872C20.8697 20.906 20.2063 20.5449 19.6858 19.904C19.162 19.2588 18.9381 18.5316 19.0146 17.7223C19.0952 16.9096 19.4618 16.234 20.1145 15.6957C20.5204 15.361 20.9681 15.1466 21.4577 15.0527C21.9472 14.9587 22.4166 14.9905 22.8659 15.148L22.4746 16.1888C22.2227 16.0938 21.9439 16.0774 21.6381 16.1395C21.3323 16.2016 21.0517 16.3379 20.7964 16.5484C20.3738 16.8969 20.1417 17.3208 20.0998 17.8199C20.0512 18.3107 20.1998 18.7689 20.5457 19.1948C20.8846 19.6123 21.3014 19.8459 21.7959 19.8957C22.287 19.9412 22.7606 19.776 23.2167 19.3998C23.5472 19.1273 23.7634 18.8257 23.8654 18.4952C23.9672 18.1647 23.9502 17.8339 23.8139 17.5027L22.4833 18.6001L21.8568 17.8284Z" fill="#F4EEEE"/>
<path id="Vector_15" d="M27.674 9.47636L28.6348 9L31 13.7022L30.073 14.1618L28.539 11.1121L28.3042 13.956L28.1959 14.0097L25.7683 12.4941L27.2988 15.5371L26.3651 16L24 11.2978L24.9608 10.8215L27.4392 12.3707L27.674 9.47636Z" fill="#F4EEEE"/>
<path id="Vector_16" d="M32 7.60491L33.8275 7.07137C34.2944 6.9351 34.7333 6.99396 35.1442 7.24796C35.5505 7.50333 35.815 7.88536 35.9375 8.39403C36.0601 8.9027 36.0024 9.3788 35.7645 9.82216C35.5219 10.267 35.1672 10.5575 34.7004 10.6938L33.8391 10.9453L34.2663 12.718L33.3 13L32 7.60491ZM33.5995 9.951L34.4609 9.69958C34.6662 9.63963 34.8181 9.51281 34.9163 9.31913C35.0133 9.12027 35.0339 8.90528 34.9782 8.67406C34.9212 8.43773 34.8065 8.26223 34.634 8.14762C34.4614 8.03299 34.2725 8.00565 34.0671 8.06562L33.2059 8.31706L33.5995 9.951Z" fill="#F4EEEE"/>
<path id="Vector_17" d="M48.9958 8.96069C48.9593 9.65763 48.6913 10.2558 48.1916 10.7555L48.7547 11.3636L47.9119 12L47.3174 11.3595C46.8603 11.5713 46.3708 11.6652 45.8488 11.641C45.0247 11.6031 44.3328 11.2996 43.7732 10.7305C43.2194 10.1564 42.9631 9.47451 43.0043 8.68469C43.0455 7.89487 43.3714 7.24235 43.9821 6.72715C44.5931 6.20678 45.3134 5.9657 46.143 6.00392C46.9726 6.04214 47.6643 6.34827 48.2181 6.92229C48.7778 7.49141 49.0369 8.17087 48.9958 8.96069ZM45.9034 10.5957C46.1231 10.6058 46.3392 10.5822 46.5514 10.5247L45.6522 9.55181L46.4949 8.91535L47.4569 9.95319C47.7039 9.65413 47.8377 9.30584 47.8584 8.90831C47.8853 8.39208 47.729 7.95797 47.3894 7.60597C47.0498 7.25398 46.6162 7.06583 46.0888 7.04153C45.5613 7.01724 45.1104 7.16463 44.7357 7.48373C44.3611 7.80282 44.1603 8.22048 44.1333 8.7367C44.1067 9.24773 44.2632 9.67933 44.6027 10.0313C44.9424 10.3833 45.3759 10.5714 45.9034 10.5957Z" fill="#F4EEEE"/>
<path id="Vector_18" d="M52.5764 12.9023C51.996 12.7447 51.5638 12.4502 51.2798 12.0186C50.996 11.5871 50.928 11.0935 51.0762 10.5376L52.0192 7L53.0386 7.27688L52.1176 10.7319C52.0428 11.0123 52.0634 11.2541 52.1795 11.4576C52.3019 11.6572 52.5242 11.8009 52.8466 11.8884C53.1691 11.9759 53.4303 11.9637 53.6305 11.8516C53.8369 11.7358 53.9774 11.5377 54.0521 11.2574L54.9732 7.80235L56 8.08125L55.0569 11.6189C54.9088 12.1747 54.6046 12.5673 54.1446 12.7967C53.6844 13.0261 53.1617 13.0614 52.5764 12.9023Z" fill="#F4EEEE"/>
<path id="Vector_19" d="M61.2849 16L60.314 15.4976L60.4575 14.5283L58.6516 13.594L57.9644 14.282L57 13.7829L60.8931 10L62 10.5726L61.2849 16ZM60.9257 11.3336L59.3616 12.893L60.6044 13.536L60.9257 11.3336Z" fill="#F4EEEE"/>
<path id="Vector_20" d="M67 13.6281L64.4183 17.0009L66.0016 18.2162L65.4016 19L63 17.1566L66.1817 13L67 13.6281Z" fill="#F4EEEE"/>
<path id="Vector_21" d="M67 21.1719L71.1813 17L72 17.8281L67.8187 22L67 21.1719Z" fill="#F4EEEE"/>
<path id="Vector_22" d="M73.5271 19L76 22.0042L75.1647 22.5884L74.2571 21.4859L70.6627 24L70 23.1949L73.5945 20.6809L72.6918 19.5842L73.5271 19Z" fill="#F4EEEE"/>
<path id="Vector_23" d="M79.4625 27.1286L80 28.1897L76.3054 28.0473L74.4721 29L74 28.0682L75.8334 27.1155L77.8776 24L78.415 25.061L76.9778 27.1138L79.4625 27.1286Z" fill="#F4EEEE"/>
<path id="Vector_24" d="M27.2537 51C26.0399 51 25.0248 50.5824 24.2084 49.7472C23.4028 48.9121 23 47.8791 23 46.6483C23 45.4176 23.4028 44.3846 24.2084 43.5495C25.0248 42.7143 26.0399 42.2967 27.2537 42.2967C28.0379 42.2967 28.7522 42.489 29.3967 42.8737C30.0412 43.2582 30.5299 43.7747 30.8629 44.423L29.0744 45.4945C28.9134 45.1538 28.6662 44.8846 28.3333 44.6868C28.011 44.489 27.6458 44.3901 27.2376 44.3901C26.6146 44.3901 26.099 44.6044 25.6908 45.033C25.2826 45.4506 25.0785 45.989 25.0785 46.6483C25.0785 47.2857 25.2826 47.8242 25.6908 48.2637C26.099 48.6813 26.6146 48.8901 27.2376 48.8901C27.6565 48.8901 28.0272 48.7966 28.3494 48.6099C28.6824 48.412 28.9294 48.1429 29.0906 47.8022L30.8952 48.8571C30.5407 49.5165 30.0358 50.0385 29.3806 50.423C28.7361 50.8076 28.0272 51 27.2537 51ZM37.5679 44.5714H43.2235V45.4615C43.2235 47.1099 42.7079 48.445 41.6766 49.467C40.6454 50.489 39.3134 51 37.6807 51C35.9406 51 34.4958 50.423 33.3465 49.2692C32.2079 48.1044 31.6385 46.6868 31.6385 45.0164C31.6385 43.3352 32.2024 41.912 33.3303 40.7472C34.4689 39.5824 35.8761 39 37.5518 39C38.5938 39 39.5497 39.2418 40.4199 39.7252C41.29 40.2088 41.9721 40.8627 42.4662 41.6868L40.5649 42.8077C40.2963 42.3351 39.8881 41.9505 39.3403 41.6538C38.7925 41.3572 38.191 41.2087 37.5357 41.2087C36.4507 41.2087 35.5646 41.5714 34.8771 42.2967C34.1897 43 33.8459 43.9066 33.8459 45.0164C33.8459 46.1044 34.195 47.0055 34.8932 47.7198C35.5915 48.4231 36.526 48.7747 37.6969 48.7747C38.5454 48.7747 39.2544 48.5824 39.8237 48.1977C40.393 47.8131 40.7797 47.2747 40.9838 46.5824H37.5679V44.5714ZM53.5541 39.2307H55.8421V50.7692H53.6347V43.2857L50.4605 48.6428H50.2027L47.0286 43.3022V50.7692H44.805V39.2307H47.093L50.3316 44.6868L53.5541 39.2307ZM57.9437 39.2307H62.1491C63.2232 39.2307 64.1363 39.6044 64.8882 40.3516C65.6294 41.0989 66 42.0164 66 43.1044C66 44.1923 65.6294 45.1099 64.8882 45.8571C64.1363 46.6044 63.2232 46.978 62.1491 46.978H60.1672V50.7692H57.9437V39.2307ZM60.1672 44.8517H62.1491C62.6217 44.8517 63.0138 44.6868 63.3253 44.3572C63.6368 44.0165 63.7926 43.5989 63.7926 43.1044C63.7926 42.5989 63.6368 42.1813 63.3253 41.8517C63.0138 41.5219 62.6217 41.3572 62.1491 41.3572H60.1672V44.8517Z" fill="#F4EEEE"/>
<path id="Vector_25" d="M8.5 46C9.32843 46 10 45.3284 10 44.5C10 43.6716 9.32843 43 8.5 43C7.67157 43 7 43.6716 7 44.5C7 45.3284 7.67157 46 8.5 46Z" fill="#F4EEEE"/>
<path id="Vector_26" d="M80.5 46C81.3284 46 82 45.3284 82 44.5C82 43.6716 81.3284 43 80.5 43C79.6716 43 79 43.6716 79 44.5C79 45.3284 79.6716 46 80.5 46Z" fill="#F4EEEE"/>
</g>
</svg>
