<svg width="90" height="90" viewBox="0 0 90 90" fill="none" xmlns="http://www.w3.org/2000/svg">
<g id="licenses-logo5.svg">
<path id="Vector" d="M89 44.5C89 69.0766 69.0767 89 44.5 89C19.9233 89 0 69.0766 0 44.5C0 19.9233 19.9233 0 44.5 0C69.0767 0 89 19.9233 89 44.5ZM17.2646 44.5C17.2646 59.5417 29.4582 71.7355 44.5 71.7355C59.5417 71.7355 71.7355 59.5417 71.7355 44.5C71.7355 29.4582 59.5417 17.2645 44.5 17.2645C29.4582 17.2645 17.2646 29.4582 17.2646 44.5Z" fill="#A1203E"/>
<path id="Vector_2" d="M81.4666 55.7871L80.635 54.6333C80.4566 54.9178 80.2293 55.1185 79.9531 55.2355C79.6758 55.3567 79.3834 55.3719 79.076 55.281C78.6212 55.1465 78.3104 54.8859 78.1435 54.4994C77.9741 54.1212 77.9547 53.7067 78.0853 53.2556C78.1877 52.9023 78.3582 52.6133 78.5971 52.3882C78.8402 52.1644 79.1291 52.035 79.4638 52L79.6752 52.8803C79.3033 52.8859 79.0576 53.0949 78.9381 53.5077C78.8727 53.7332 78.8748 53.9233 78.9444 54.0779C79.0169 54.2379 79.1458 54.3453 79.331 54.4001C79.5121 54.4537 79.6759 54.4328 79.8223 54.3375C79.9676 54.2465 80.0728 54.0882 80.1381 53.8626L80.1936 53.6711L80.7969 53.4823L81.6787 54.6995L82.1852 52.9504L83 53.1914L82.1867 56L81.4666 55.7871Z" fill="#F4EEEE"/>
<path id="Vector_3" d="M76 59.8452L76.3594 59.0499L77.989 58.8868L78.2422 58.3263L76.9527 57.7366L77.2856 57L81 58.6986L80.3246 60.1932C80.1687 60.5384 79.9157 60.7771 79.5658 60.909C79.216 61.041 78.8711 61.0294 78.5316 60.8741C78.3017 60.7689 78.1174 60.6053 77.9787 60.3829C77.8437 60.1623 77.7757 59.9208 77.7747 59.6585L76 59.8452ZM79.6401 59.8803L79.9826 59.1222L78.8842 58.6199L78.5417 59.378C78.479 59.5167 78.4782 59.6603 78.5393 59.8084C78.604 59.9582 78.7123 60.0679 78.8645 60.1374C79.0166 60.207 79.1682 60.2162 79.3193 60.1651C79.4705 60.114 79.5774 60.019 79.6401 59.8803Z" fill="#F4EEEE"/>
<path id="Vector_4" d="M79 64.5033L78.0382 66.0151C77.7061 66.537 77.2523 66.8518 76.6766 66.9589C76.1022 67.0722 75.5538 66.9512 75.0312 66.5959C74.5086 66.2407 74.1839 65.7681 74.0569 65.178C73.9241 64.5892 74.0237 64.0337 74.3559 63.5117L75.3176 62L79 64.5033ZM75.5346 63.2225L75.0503 63.9838C74.8404 64.3137 74.7749 64.6534 74.8539 65.0031C74.9399 65.3576 75.1512 65.6493 75.4879 65.8781C75.828 66.1094 76.1691 66.1932 76.5109 66.1297C76.8564 66.0684 77.1339 65.8729 77.3438 65.543L77.8281 64.7816L75.5346 63.2225Z" fill="#F4EEEE"/>
<path id="Vector_5" d="M73 72.4279L71.6855 73.5808C71.3498 73.8753 70.9615 74.0146 70.5205 73.9988C70.0828 73.98 69.714 73.809 69.4142 73.4858C69.1144 73.1626 68.9774 72.7883 69.003 72.3632C69.0321 71.9351 69.2146 71.5737 69.5503 71.2793L70.1697 70.7359L69.1248 69.6096L69.8199 69L73 72.4279ZM70.7558 71.3676L70.1364 71.9109C69.9886 72.0405 69.9115 72.197 69.905 72.3804C69.9015 72.5669 69.9679 72.7337 70.1042 72.8806C70.2435 73.0307 70.4074 73.1121 70.5955 73.1246C70.7838 73.1372 70.9517 73.0786 71.0995 72.9491L71.7189 72.4057L70.7558 71.3676Z" fill="#F4EEEE"/>
<path id="Vector_6" d="M63 74.2335L63.6845 73.7274L64.2536 74.233L65.5266 73.2917L65.3407 72.5027L66.0206 72L67 76.423L66.2197 77L63 74.2335ZM66.1312 75.8963L65.7123 74.103L64.8363 74.7507L66.1312 75.8963Z" fill="#F4EEEE"/>
<path id="Vector_7" d="M58 77.428L58.8738 77.0288L60.3513 78.0772L60.9671 77.7958L60.3166 76.3697L61.1259 76L63 80.1082L61.3579 80.8583C60.9785 81.0316 60.5953 81.0459 60.2081 80.9013C59.8208 80.7567 59.5415 80.4966 59.3702 80.121C59.2542 79.8667 59.2185 79.5969 59.2632 79.3117C59.3097 79.0305 59.4273 78.7805 59.6158 78.5621L58 77.428ZM61.0125 80.1013L61.8453 79.7208L61.2911 78.506L60.4582 78.8865C60.3058 78.9561 60.2016 79.0746 60.1456 79.242C60.0915 79.4133 60.1028 79.583 60.1796 79.7513C60.2563 79.9195 60.3762 80.0373 60.5392 80.1048C60.7022 80.1721 60.86 80.1709 61.0125 80.1013Z" fill="#F4EEEE"/>
<path id="Vector_8" d="M58 82.0516L55.2096 83L55 82.1707L56.024 81.8227L55.1219 78.2541L55.8696 78L56.7717 81.5686L57.7903 81.2223L58 82.0516Z" fill="#F4EEEE"/>
<path id="Vector_9" d="M50.013 82.8833L49 83L50.1679 80.5525L49.9182 79.1025L50.8078 79L51.0574 80.45L53 82.5391L51.987 82.6558L50.7329 81.2187L50.013 82.8833Z" fill="#F4EEEE"/>
<path id="Vector_10" d="M41.0172 82.9282L41.2785 79.8535L40 79.7146L40.0607 79L42 79.2107L41.6779 83L41.0172 82.9282Z" fill="#F4EEEE"/>
<path id="Vector_11" d="M35 78L35.9063 78.2308L35.9719 79.0799L37.6578 79.5092L38.0997 78.7894L39 79.0187L36.4743 83L35.441 82.7368L35 78ZM36.1921 81.8777L37.1993 80.2447L36.0391 79.9492L36.1921 81.8777Z" fill="#F4EEEE"/>
<path id="Vector_12" d="M29.7881 78.9664C29.5263 78.6067 29.4781 78.2156 29.6434 77.7929C29.781 77.4413 30.0115 77.2044 30.335 77.0822C30.6584 76.96 30.992 76.9741 31.3357 77.1244L33 77.8525L31.3772 82L29.8306 81.3234C29.4981 81.178 29.2592 80.944 29.1141 80.6215C28.9691 80.299 28.9623 79.9698 29.0936 79.6341C29.2281 79.2904 29.4596 79.0678 29.7881 78.9664ZM30.1296 80.5591L30.903 80.8973L31.26 79.9849L30.4866 79.6467C30.3671 79.5944 30.251 79.5945 30.1386 79.647C30.0224 79.698 29.9388 79.7887 29.8878 79.919C29.8368 80.0494 29.8335 80.1752 29.878 80.2964C29.9224 80.4176 30.0063 80.5052 30.1296 80.5591ZM31.9276 78.2785L31.0366 77.8888C30.9058 77.8315 30.7798 77.8296 30.6583 77.8829C30.5352 77.9401 30.4459 78.0398 30.3903 78.182C30.3362 78.3202 30.3343 78.4536 30.3848 78.5821C30.4335 78.7144 30.5234 78.8092 30.6541 78.8664L31.5451 79.2562L31.9276 78.2785Z" fill="#F4EEEE"/>
<path id="Vector_13" d="M23.424 78L21 75.9615L21.464 75.262L22.3536 76.0101L24.3505 73L25 73.5462L23.0031 76.5563L23.8881 77.3005L23.424 78Z" fill="#F4EEEE"/>
<path id="Vector_14" d="M20.1072 71.5774L20.8032 70.8847L19.4959 69.5824L20.0811 69L22 70.9113L18.8967 74L17 72.1108L17.5852 71.5283L18.8704 72.8084L19.5309 72.151L18.3566 70.9812L18.9328 70.4076L20.1072 71.5774Z" fill="#F4EEEE"/>
<path id="Vector_15" d="M16.61 66.7088C16.8456 67.0371 16.9745 67.3694 16.9964 67.7054C17.0183 68.0416 16.9399 68.3541 16.761 68.6432L16.0397 68.326C16.2728 67.9399 16.2521 67.5556 15.9775 67.1731C15.8493 66.9946 15.7227 66.8846 15.5975 66.8431C15.4723 66.8016 15.3578 66.8215 15.2539 66.9026C15.1408 66.9909 15.0915 67.1116 15.106 67.2644C15.1173 67.4198 15.1835 67.6616 15.3047 67.9898C15.4297 68.3499 15.4963 68.6585 15.5045 68.9159C15.5059 69.2432 15.3613 69.5203 15.0711 69.747C14.7778 69.9762 14.4704 70.0497 14.1491 69.9674C13.8216 69.89 13.548 69.6982 13.3284 69.3922C13.1362 69.1244 13.0283 68.838 13.0049 68.5329C12.9814 68.2279 13.043 67.9285 13.1897 67.6347L13.895 67.9494C13.7162 68.2982 13.732 68.6191 13.9425 68.9124C14.0386 69.0462 14.1458 69.1292 14.2641 69.1611C14.3794 69.1954 14.4844 69.1755 14.5791 69.1015C14.6799 69.0228 14.7316 68.9153 14.7339 68.7791C14.7294 68.6333 14.6754 68.4119 14.5717 68.1148L14.4803 67.8279C14.4627 67.777 14.4372 67.6849 14.4038 67.5519C14.3687 67.4301 14.3505 67.3348 14.349 67.2664C14.3285 67.0386 14.3477 66.8594 14.4066 66.7288C14.4754 66.5457 14.5969 66.3861 14.7711 66.25C15.0674 66.0184 15.3839 65.9477 15.7205 66.038C16.0572 66.1282 16.3536 66.3518 16.61 66.7088Z" fill="#F4EEEE"/>
<path id="Vector_16" d="M11.6043 66L10 63.0961L10.7507 62.6884L11.3396 63.7542L14.5702 62L15 62.7781L11.7694 64.5323L12.3551 65.5923L11.6043 66Z" fill="#F4EEEE"/>
<path id="Vector_17" d="M11.02 59.32L11.9323 58.9813L11.2896 57.2847L12.0566 57L13 59.4904L8.93251 61L8 58.5384L8.767 58.2537L9.39882 59.9216L10.2647 59.6003L9.68725 58.0762L10.4427 57.7958L11.02 59.32Z" fill="#F4EEEE"/>
<path id="Vector_18" d="M6.3415 55L6.04162 53.4024C5.93807 52.8508 6.02773 52.3511 6.31061 51.9035C6.58927 51.4528 6.98819 51.1686 7.50734 51.0507C8.0265 50.9329 8.4952 51.0203 8.91333 51.3128C9.33432 51.6008 9.59652 52.0206 9.7001 52.5722L10 54.1698L6.3415 55ZM9.1612 53.5333L9.01023 52.7288C8.94476 52.3801 8.78704 52.1204 8.53697 51.9495C8.27997 51.7801 7.98422 51.7334 7.64973 51.8093C7.31176 51.886 7.05874 52.0573 6.89067 52.3231C6.71912 52.5897 6.66607 52.8973 6.73151 53.2459L6.88252 54.0504L9.1612 53.5333Z" fill="#F4EEEE"/>
<path id="Vector_19" d="M7.46883 35.197L8.3341 36.3495C8.50545 36.0546 8.72808 35.8438 9.00202 35.717C9.27707 35.5857 9.57004 35.5621 9.88086 35.6462C10.3407 35.7705 10.6595 36.0274 10.8373 36.4167C11.0174 36.7973 11.048 37.2191 10.929 37.6825C10.8358 38.0451 10.6724 38.3445 10.4388 38.5804C10.201 38.8152 9.91452 38.955 9.57971 39L9.34397 38.109C9.71698 38.093 9.95786 37.8731 10.0667 37.4492C10.1263 37.2175 10.119 37.0239 10.0451 36.8685C9.96804 36.7074 9.83591 36.6015 9.64855 36.5508C9.46542 36.5013 9.3017 36.5271 9.15733 36.6283C9.01407 36.725 8.9127 36.8893 8.85322 37.1209L8.80271 37.3175L8.20253 37.5268L7.28519 36.3111L6.82392 38.1073L6 37.8844L6.74072 35L7.46883 35.197Z" fill="#F4EEEE"/>
<path id="Vector_20" d="M13 30.0852L12.6597 30.9001L11.0245 31.1094L10.7847 31.6836L12.0978 32.2453L11.7826 33L8 31.3819L8.63955 29.8508C8.78725 29.4971 9.03536 29.2487 9.38387 29.1056C9.73237 28.9624 10.0796 28.9649 10.4254 29.1128C10.6596 29.213 10.8494 29.3736 10.9947 29.5948C11.1365 29.8145 11.2115 30.057 11.2194 30.3227L13 30.0852ZM9.33663 30.1489L9.01228 30.9255L10.1308 31.404L10.4552 30.6274C10.5146 30.4852 10.5115 30.34 10.4461 30.1917C10.3771 30.0418 10.2651 29.9337 10.1102 29.8674C9.95527 29.8012 9.80246 29.796 9.65181 29.8519C9.50106 29.9077 9.39601 30.0068 9.33663 30.1489Z" fill="#F4EEEE"/>
<path id="Vector_21" d="M10 26.5847L10.924 25.0391C11.2431 24.5054 11.6893 24.1768 12.2626 24.0533C12.8346 23.9238 13.3866 24.0304 13.9186 24.3732C14.4506 24.7159 14.7876 25.182 14.9298 25.7716C15.0776 26.3597 14.992 26.9207 14.673 27.4544L13.7489 29L10 26.5847ZM13.5007 27.7773L13.9661 26.9989C14.1677 26.6617 14.2245 26.3184 14.1366 25.9691C14.0416 25.6152 13.8227 25.3279 13.4799 25.107C13.1335 24.8839 12.7901 24.809 12.4496 24.8822C12.1055 24.9532 11.8326 25.1572 11.6309 25.4945L11.1656 26.2729L13.5007 27.7773Z" fill="#F4EEEE"/>
<path id="Vector_22" d="M16 18.3111L17.2842 17.359C17.6122 17.1158 17.9969 16.9962 18.4384 17.0001C18.8766 17.0065 19.2498 17.1364 19.5582 17.3899C19.8666 17.6434 20.0135 17.9412 19.999 18.2831C19.9812 18.6275 19.8083 18.9213 19.4802 19.1644L18.875 19.6131L19.9496 20.4967L19.2706 21L16 18.3111ZM18.2722 19.1176L18.8775 18.6689C19.0218 18.5619 19.0948 18.4348 19.0965 18.2874C19.095 18.1375 19.0243 18.0049 18.8841 17.8896C18.7408 17.7719 18.5749 17.7098 18.3863 17.7035C18.1977 17.6972 18.0313 17.7475 17.887 17.8546L17.2817 18.3032L18.2722 19.1176Z" fill="#F4EEEE"/>
<path id="Vector_23" d="M25 15.6773L24.3352 16.2037L23.7617 15.7137L22.5253 16.6926L22.7265 17.4772L22.0662 18L21 13.6L21.7578 13L25 15.6773ZM21.8699 14.1024L22.3237 15.8857L23.1746 15.2121L21.8699 14.1024Z" fill="#F4EEEE"/>
<path id="Vector_24" d="M30 13.4953L29.1479 13.9159L27.664 12.9074L27.0636 13.2039L27.7413 14.6104L26.9521 15L25 10.9482L26.6011 10.1577C26.9709 9.97515 27.3486 9.95108 27.7343 10.0855C28.1199 10.2199 28.402 10.4724 28.5805 10.8428C28.7013 11.0937 28.7433 11.362 28.7063 11.6476C28.6675 11.9296 28.5579 12.1819 28.3774 12.4048L30 13.4953ZM26.9609 10.9044L26.1488 11.3053L26.7261 12.5034L27.5381 12.1026C27.6868 12.0292 27.7866 11.9082 27.8376 11.7398C27.8867 11.5675 27.8713 11.3983 27.7914 11.2325C27.7114 11.0665 27.5901 10.952 27.4276 10.8889C27.2651 10.8258 27.1095 10.8311 26.9609 10.9044Z" fill="#F4EEEE"/>
<path id="Vector_25" d="M30 8.0279L32.7717 7L33 7.81978L31.9829 8.197L32.9652 11.7246L32.2226 12L31.2401 8.47244L30.2283 8.84766L30 8.0279Z" fill="#F4EEEE"/>
<path id="Vector_26" d="M37.987 6.13714L39 6L37.9066 8.44884L38.204 9.87959L37.3144 10L37.017 8.56927L35 6.54152L36.013 6.40438L37.318 7.80109L37.987 6.13714Z" fill="#F4EEEE"/>
<path id="Vector_27" d="M45.8999 6.05233L45.7105 9.17342L47 9.2747L46.956 10L45 9.84645L45.2334 6L45.8999 6.05233Z" fill="#F4EEEE"/>
<path id="Vector_28" d="M53 11L52.0936 10.7928L52.0063 9.93848L50.3206 9.55292L49.9003 10.2912L49 10.0853L51.4052 6L52.4384 6.23629L53 11ZM51.7147 7.12368L50.7568 8.79848L51.9169 9.06382L51.7147 7.12368Z" fill="#F4EEEE"/>
<path id="Vector_29" d="M58.2271 11.0036C58.5 11.3579 58.5574 11.749 58.3993 12.1769C58.2678 12.5328 58.0396 12.776 57.7149 12.9065C57.3902 13.0369 57.0521 13.0309 56.7009 12.8885L55 12.1989L56.5515 8L58.1322 8.64079C58.4719 8.77853 58.7188 9.00736 58.8728 9.32727C59.0268 9.64717 59.041 9.9771 58.9153 10.317C58.7868 10.6649 58.5574 10.8938 58.2271 11.0036ZM57.8462 9.41459L57.0559 9.0942L56.7146 10.0179L57.5049 10.3384C57.627 10.3879 57.7445 10.3849 57.8572 10.3294C57.9737 10.2756 58.0563 10.1825 58.1051 10.0506C58.1538 9.91861 58.1544 9.79239 58.1067 9.67193C58.0591 9.55144 57.9722 9.46566 57.8462 9.41459ZM56.0763 11.7456L56.9868 12.1147C57.1204 12.1689 57.2481 12.1677 57.3699 12.1114C57.4932 12.051 57.5815 11.9489 57.6346 11.8049C57.6863 11.6649 57.6853 11.5311 57.6315 11.4036C57.5791 11.2719 57.4862 11.1791 57.3525 11.1249L56.442 10.7558L56.0763 11.7456Z" fill="#F4EEEE"/>
<path id="Vector_30" d="M64.4937 11L67 12.9565L66.5458 13.6658L65.626 12.9478L63.6716 16L63 15.4757L64.9544 12.4235L64.0395 11.7093L64.4937 11Z" fill="#F4EEEE"/>
<path id="Vector_31" d="M68.8873 17.4389L68.2049 18.1452L69.5542 19.4062L68.9805 20L67 18.1491L70.0424 15L72 16.8296L71.4263 17.4234L70.0999 16.1837L69.4523 16.8541L70.6644 17.9869L70.0993 18.5717L68.8873 17.4389Z" fill="#F4EEEE"/>
<path id="Vector_32" d="M71.4189 22.3267C71.1744 22.0069 71.037 21.6804 71.0068 21.3472C70.9765 21.014 71.0476 20.7016 71.22 20.41L71.9514 20.7057C71.727 21.0953 71.7573 21.4764 72.0422 21.8489C72.1751 22.0228 72.3049 22.1287 72.4316 22.1666C72.5582 22.2045 72.6726 22.1818 72.7748 22.0984C72.8861 22.0077 72.9326 21.8867 72.9144 21.7352C72.8992 21.5813 72.8268 21.3429 72.6972 21.0203C72.5629 20.666 72.4886 20.3612 72.474 20.106C72.4647 19.781 72.6028 19.5021 72.8885 19.2692C73.1772 19.0339 73.4838 18.9529 73.8083 19.026C74.1387 19.0943 74.4179 19.2775 74.6459 19.5756C74.8453 19.8363 74.9605 20.1179 74.9916 20.4202C75.0226 20.7225 74.9681 21.0214 74.828 21.317L74.1127 21.0232C74.2836 20.6721 74.2598 20.3538 74.0415 20.0682C73.9418 19.9378 73.8321 19.8583 73.7126 19.8297C73.5962 19.7987 73.4913 19.8212 73.398 19.8972C73.2988 19.978 73.2497 20.0861 73.2506 20.2215C73.2587 20.366 73.3183 20.5845 73.4296 20.8768L73.5284 21.1592C73.5472 21.2094 73.5751 21.3 73.6119 21.4313C73.6501 21.5513 73.6708 21.6454 73.6739 21.7134C73.7001 21.939 73.6852 22.1175 73.6293 22.2487C73.5648 22.4323 73.4467 22.594 73.2754 22.7337C72.9836 22.9715 72.6678 23.0501 72.3278 22.9693C71.9878 22.8886 71.6848 22.6743 71.4189 22.3267Z" fill="#F4EEEE"/>
<path id="Vector_33" d="M77.3184 23L79 25.8108L78.2585 26.2296L77.6413 25.198L74.4506 27L74 26.2468L77.1907 24.4448L76.5769 23.4187L77.3184 23Z" fill="#F4EEEE"/>
<path id="Vector_34" d="M77.9747 29.6994L77.0756 30.0541L77.7589 31.7018L77.0031 32L76 29.5815L80.0085 28L81 30.3905L80.2441 30.6888L79.5723 29.069L78.7191 29.4057L79.3329 30.8858L78.5885 31.1795L77.9747 29.6994Z" fill="#F4EEEE"/>
<path id="Vector_35" d="M81.6126 33L81.9479 34.5707C82.0637 35.1131 81.9865 35.6095 81.7161 36.0601C81.4501 36.5134 81.0607 36.8057 80.548 36.9368C80.0354 37.068 79.5681 36.9949 79.146 36.7176C78.7214 36.4449 78.4511 36.0374 78.3353 35.495L78 33.9243L81.6126 33ZM78.8477 34.5297L79.0165 35.3206C79.0897 35.6634 79.2524 35.9158 79.5047 36.0777C79.7639 36.2378 80.0585 36.2756 80.3889 36.1911C80.7226 36.1057 80.9698 35.9292 81.1304 35.6618C81.2944 35.3933 81.3398 35.0878 81.2667 34.745L81.0978 33.954L78.8477 34.5297Z" fill="#F4EEEE"/>
<path id="Vector_36" d="M56.9301 47.2938C56.9314 47.2768 56.9397 47.262 56.9397 47.2445C56.9397 47.1722 56.9294 47.1026 56.9089 47.0373C56.3358 41.8518 52.9422 37.5249 48.1764 35.8593L48.1761 29.3601H48.7017C49.0658 29.3601 49.3603 29.0557 49.3603 28.68C49.3603 28.3044 49.0658 28 48.7017 28H39.2904C38.9264 28 38.6318 28.3044 38.6318 28.68C38.6318 29.0557 38.9264 29.3601 39.2904 29.3601H39.8152V35.8599C34.9269 37.5781 31.4252 42.2202 31.0399 47.5683C31.0399 47.5691 31.0394 47.5695 31.0394 47.5703C31.0131 47.9035 31 48.2368 31 48.5766C30.9997 55.975 36.8281 62 43.9997 62C51.1713 62 57 55.9754 57 48.5766C57 48.1825 56.9745 47.7647 56.9301 47.2938ZM40.6613 37.0086C40.9403 36.9226 41.1322 36.6577 41.1322 36.3568V29.3607H46.8592V36.3568C46.8592 36.6577 47.0507 36.9228 47.3299 37.0086C51.3578 38.245 54.3704 41.5657 55.3427 45.695C55.3337 45.6894 55.3227 45.685 55.3133 45.6793C55.179 45.5981 55.0367 45.5222 54.8867 45.4514C54.8423 45.4304 54.7945 45.4122 54.7484 45.3921C54.6223 45.3376 54.4899 45.2884 54.3509 45.2437C54.2957 45.2262 54.2396 45.2094 54.1822 45.1936C54.0304 45.1517 53.8686 45.1179 53.6995 45.0901C53.65 45.0819 53.6037 45.0715 53.5525 45.0649C53.3231 45.0343 53.0822 45.0136 52.8176 45.0136C51.0196 45.0136 50.091 45.7818 49.2678 46.4619C48.5237 47.0739 47.885 47.6044 46.5413 47.6044C45.2722 47.6044 44.6313 47.1251 43.933 46.553C43.8955 46.5221 43.8583 46.492 43.8203 46.4607C43.5128 46.2067 43.1901 45.9398 42.8118 45.7057C42.1807 45.3143 41.3962 45.0136 40.2721 45.0136C38.4741 45.0136 37.5455 45.7819 36.7224 46.462C35.9783 47.074 35.3393 47.6045 34.0025 47.6045C33.9562 47.6045 33.9153 47.601 33.8709 47.5998C33.772 47.5971 33.6757 47.5926 33.5854 47.584C33.5252 47.5783 33.467 47.5719 33.4103 47.564C33.3134 47.5504 33.2207 47.5342 33.1335 47.5147C33.0876 47.5046 33.0432 47.494 33 47.4824C32.9116 47.4587 32.827 47.4328 32.7482 47.404C32.716 47.3923 32.6845 47.3805 32.6536 47.3682C32.5614 47.3312 32.4726 47.2925 32.3918 47.2508C32.3911 47.2505 32.3906 47.25 32.3901 47.2498C32.9001 42.471 36.1792 38.3871 40.6613 37.0086Z" fill="#F4EEEE"/>
<path id="Vector_37" d="M8.5 46C9.32843 46 10 45.3284 10 44.5C10 43.6716 9.32843 43 8.5 43C7.67157 43 7 43.6716 7 44.5C7 45.3284 7.67157 46 8.5 46Z" fill="#F4EEEE"/>
<path id="Vector_38" d="M80.5 46C81.3284 46 82 45.3284 82 44.5C82 43.6716 81.3284 43 80.5 43C79.6716 43 79 43.6716 79 44.5C79 45.3284 79.6716 46 80.5 46Z" fill="#F4EEEE"/>
</g>
</svg>
