<svg width="94" height="43" viewBox="0 0 94 43" fill="none" xmlns="http://www.w3.org/2000/svg">
<g id="logo-01 1" clip-path="url(#clip0_16_775)">
<g id="Group">
<path id="Vector" d="M0 13.868V27.736H1.3975H2.795V21.3604V14.9849H11.18H19.565V21.3604V27.736H20.9625H22.36V13.868V3.05176e-05H20.9625H19.565V6.18942V12.3788H11.18H2.795V6.18942V3.05176e-05H1.3975H0V13.868Z" fill="#F4EEEE"/>
<path id="Vector_2" d="M89.5332 4.73743C89.5332 4.78397 89.645 4.83981 89.7941 4.85843L90.0456 4.88635L90.0736 5.74263C90.1108 6.88743 90.2785 6.86882 90.2785 5.72401V4.83981H90.558C90.7164 4.83981 90.8375 4.79328 90.8375 4.74674C90.8375 4.6909 90.558 4.65367 90.1854 4.65367C89.8313 4.65367 89.5332 4.6909 89.5332 4.73743Z" fill="#F4EEEE"/>
<path id="Vector_3" d="M91.1553 4.77463C91.0621 5.03524 91.1646 6.54303 91.2857 6.58957C91.3696 6.61749 91.3975 6.40342 91.3975 5.7519L91.4069 4.88632L91.7236 5.70537C91.8913 6.16143 92.059 6.55234 92.087 6.58026C92.1895 6.68264 92.3013 6.49649 92.5621 5.76121L92.8416 4.99801L92.8882 5.77052C92.9162 6.27312 92.9721 6.56164 93.0559 6.58957C93.1398 6.61749 93.1677 6.3848 93.1677 5.63091C93.1677 4.66294 93.1677 4.64433 92.9627 4.67225C92.795 4.69087 92.7019 4.84909 92.4876 5.41684C92.3385 5.81706 92.1801 6.1242 92.1429 6.09628C92.1056 6.07766 91.9659 5.7426 91.8168 5.35169C91.6211 4.81186 91.528 4.65364 91.3882 4.65364C91.2857 4.65364 91.1833 4.70948 91.1553 4.77463Z" fill="#F4EEEE"/>
<path id="Vector_4" d="M80.4214 5.68676C80.4493 5.77053 80.7661 5.85429 81.3437 5.92875C83.3561 6.19867 85.2195 7.07356 86.7753 8.47897C89.207 10.6755 90.5579 14.2123 90.2039 17.4699C89.9523 19.7409 89.2163 21.3324 87.6697 22.8961C85.825 24.7668 83.999 25.6045 81.7071 25.6138C79.9369 25.6231 78.4742 25.2043 77.0953 24.2829C75.586 23.2777 74.5426 21.6675 73.9649 19.471C73.7134 18.5309 73.6947 16.958 73.9183 16.1017C74.5612 13.6446 76.4897 11.6155 78.7351 11.0292C79.499 10.8244 81.0829 10.8244 81.8468 11.0292C83.4772 11.448 84.707 12.4904 85.471 14.0727C85.9834 15.143 86.1232 15.7294 86.1045 16.7997C86.0859 18.7729 85.0238 20.5413 83.3375 21.3883C82.5828 21.7606 81.9214 21.8909 80.9711 21.8536C80.1698 21.8257 79.9928 21.7792 79.3686 21.4814C77.4028 20.5506 76.4059 18.3262 77.0487 16.2785C78.027 13.1233 82.2009 12.6394 83.5518 15.5246C83.7754 15.99 83.8033 16.1668 83.8033 17.0324C83.8033 17.8794 83.7754 18.0655 83.5797 18.4285C83.3282 18.9218 82.704 19.592 82.3127 19.7967C81.8655 20.0387 82.2009 20.0387 82.704 19.806C84.6605 18.8939 85.2101 15.9993 83.7754 14.1006C83.3002 13.477 82.5735 12.9 81.9214 12.658C81.1201 12.3415 79.7785 12.295 78.94 12.5556C76.1078 13.4119 74.5985 16.6601 75.614 19.7316C76.2196 21.5465 77.7475 23.0729 79.5642 23.6593C80.3189 23.9013 81.6978 23.985 82.4804 23.8268C83.9431 23.5476 85.4337 22.7192 86.4306 21.6582C88.5828 19.35 88.9554 15.8225 87.3902 12.6021C86.1698 10.0891 83.5611 8.47897 80.4493 8.31144C78.7444 8.21836 77.2723 8.62789 75.791 9.58655C74.9618 10.1357 73.8252 11.1874 73.2103 12.0065C72.5861 12.8255 71.878 14.2961 71.6451 15.264C70.9929 18.0004 71.6171 21.351 73.2569 23.7803C73.732 24.4876 74.878 25.6324 75.6047 26.1071C77.5705 27.4101 79.6667 28.0058 81.8841 27.8941C84.353 27.7731 86.9337 26.5352 88.8436 24.5435C90.0455 23.2963 90.8374 22.0026 91.2846 20.5506C92.6262 16.2227 91.5641 11.8203 88.4244 8.6465C86.4586 6.66403 84.3623 5.7333 81.6232 5.6123C80.5891 5.56576 80.3841 5.57507 80.4214 5.68676Z" fill="#F4EEEE"/>
<path id="Vector_5" d="M34.351 6.94324C29.4504 7.82744 26.2734 11.932 26.2734 17.3675C26.2734 22.7471 29.4504 26.861 34.3137 27.7824C35.3572 27.9779 37.2857 27.9593 38.3385 27.7452C40.4907 27.3077 42.4006 26.0419 43.6118 24.2735L44.0217 23.6872L44.0496 25.7069L44.0683 27.7359H45.326H46.5838V17.3116V6.87809L45.2608 6.90601L43.9285 6.93394L43.9006 8.86987L43.8819 10.8151L43.472 10.266C42.9037 9.50277 41.7764 8.46034 41.0217 8.01359C40.2205 7.53891 39.1118 7.12939 38.1056 6.94324C37.1646 6.7571 35.3479 6.7664 34.351 6.94324ZM38.5714 9.49346C41.1428 10.2287 43.0062 12.2764 43.7142 15.1337C43.9751 16.2134 43.9937 18.2889 43.7515 19.4058C43.1552 22.1515 41.3571 24.2735 38.9441 25.074C36.8572 25.772 34.5001 25.5393 32.6554 24.4597C31.8821 24.0036 30.7361 22.8774 30.2982 22.1329C29.8138 21.3231 29.3759 20.2248 29.1989 19.4058C28.9846 18.3913 28.9846 16.3251 29.1989 15.3106C29.9069 12.0716 32.115 9.86575 35.1988 9.30731C35.9441 9.1677 37.7888 9.27008 38.5714 9.49346Z" fill="#F4EEEE"/>
<path id="Vector_6" d="M68.0589 6.94332C67.0714 7.12016 66.5217 7.30631 65.6832 7.73445C64.5 8.33942 63.5683 9.24224 62.8975 10.4243L62.6087 10.9362L62.59 8.9351L62.5621 6.93401L61.2857 6.90609L60 6.87817V17.3117V27.736H61.3509H62.7018V21.984C62.7018 15.7946 62.7391 15.1431 63.1956 13.8028C63.7639 12.1368 64.8633 10.8245 66.2608 10.1637C67.2391 9.68899 68.1335 9.49354 69.2608 9.49354H70.1552V8.14397V6.7944L69.4844 6.80371C69.1117 6.80371 68.4689 6.86886 68.0589 6.94332Z" fill="#F4EEEE"/>
<path id="Vector_7" d="M51.9863 17.3117V27.736H53.3372H54.6882V17.3117V6.88748H53.3372H51.9863V17.3117Z" fill="#F4EEEE"/>
<path id="Vector_8" d="M65.2064 35.2377C64.2095 35.582 63.4083 36.4662 63.0636 37.6203C62.8959 38.1695 62.8679 38.4301 62.9052 39.305C62.9704 40.7104 63.1847 41.2688 63.9486 42.032C64.6567 42.7301 65.1132 42.9069 66.2312 42.9069C67.2561 42.9069 67.9455 42.6091 68.5883 41.8924C69.6132 40.7569 69.8834 38.5232 69.1846 36.9874C68.8772 36.308 68.2064 35.6193 67.6101 35.3587C66.9766 35.0887 65.8213 35.0236 65.2064 35.2377ZM67.1815 36.1219C68.6163 36.8385 69.0355 39.5749 67.9641 41.1944C67.1443 42.4416 65.43 42.4881 64.517 41.2874C63.6971 40.2171 63.6598 38.0392 64.4424 36.8851C64.7871 36.3732 65.1505 36.1032 65.6722 35.9636C66.1753 35.8333 66.7157 35.8892 67.1815 36.1219Z" fill="#F4EEEE"/>
<path id="Vector_9" d="M8.72928 35.247C8.69201 35.2749 8.66406 36.9967 8.66406 39.063V42.8138H9.13921H9.60505L9.5771 39.6493C9.55846 37.9089 9.55846 36.4848 9.56778 36.4848C9.58641 36.4848 9.7448 36.792 9.93113 37.155C10.1175 37.5273 10.9373 38.9513 11.7572 40.3195L13.2572 42.8138H13.751H14.2541V38.9978V35.1818H13.7789H13.2944L13.341 38.3091L13.3876 41.427L12.9031 40.4963C12.633 39.9844 11.8038 38.579 11.0678 37.369L9.73548 35.1818H9.26033C8.99946 35.1818 8.75723 35.2097 8.72928 35.247Z" fill="#F4EEEE"/>
<path id="Vector_10" d="M18.5592 38.0857L18.5871 40.9989L18.8294 41.5108C19.3232 42.5439 19.9194 42.8976 21.1772 42.9069C22.1647 42.9069 22.6492 42.7115 23.1896 42.1065C23.8324 41.3712 23.8883 41.0827 23.9256 37.9461L23.9535 35.1818H23.497H23.0312L22.9939 37.8996L22.966 40.6266L22.6865 41.1851C22.4815 41.6039 22.3138 41.7993 22.0343 41.9483C21.3542 42.3299 20.4877 42.1809 20.0033 41.6132C19.5374 41.0548 19.4722 40.608 19.4722 37.7693V35.1818H18.9971H18.5312L18.5592 38.0857Z" fill="#F4EEEE"/>
<path id="Vector_11" d="M27.3906 35.6006V36.0195H28.5086H29.6266V39.4167V42.8138H30.0925H30.5583V39.4167V36.0195H31.6763H32.7943V35.6006V35.1818H30.0925H27.3906V35.6006Z" fill="#F4EEEE"/>
<path id="Vector_12" d="M36.5031 35.247L36.2422 35.2842V39.0537V42.8138H36.708H37.1739V41.1757V39.5377L37.9751 39.5656C38.7484 39.6028 38.7763 39.6121 39.0745 39.9379C39.2794 40.1612 39.4285 40.4591 39.531 40.8686C39.6148 41.1944 39.7639 41.7528 39.8477 42.1158L40.0154 42.7673L40.5092 42.7952C40.7701 42.8138 40.9937 42.8138 40.9937 42.7952C40.9937 42.6184 40.3043 40.1333 40.2018 39.9379C40.1272 39.789 39.9316 39.5563 39.7732 39.426C39.6148 39.2864 39.4937 39.1654 39.5123 39.1467C39.531 39.1374 39.708 39.0257 39.9036 38.9141C40.8633 38.337 41.0775 36.8013 40.3322 35.8985C39.885 35.3586 39.2608 35.1818 37.8912 35.1911C37.267 35.2004 36.6428 35.2283 36.5031 35.247ZM39.0372 36.0753C39.7825 36.3731 40.062 37.2201 39.6707 37.974C39.354 38.579 39.0092 38.7465 38.0217 38.7558L37.2204 38.7651L37.1925 37.4621C37.1832 36.7548 37.1925 36.1125 37.2111 36.0474C37.2857 35.8706 38.562 35.8892 39.0372 36.0753Z" fill="#F4EEEE"/>
<path id="Vector_13" d="M44.784 35.247C44.7467 35.2749 44.7188 36.9967 44.7188 39.063V42.8138H45.2312H45.7436V38.9978V35.1818H45.2964C45.0448 35.1818 44.8119 35.2097 44.784 35.247Z" fill="#F4EEEE"/>
<path id="Vector_14" d="M49.1914 35.6006V36.0102L50.2908 36.0381L51.3808 36.066L51.4088 39.4353L51.4274 42.8138H51.8932H52.3591V39.4167V36.0195H53.4771H54.5951V35.6006V35.1818H51.8932H49.1914V35.6006Z" fill="#F4EEEE"/>
<path id="Vector_15" d="M58.043 38.9978V42.8138H58.5088H58.9746V38.9978V35.1818H58.5088H58.043V38.9978Z" fill="#F4EEEE"/>
<path id="Vector_16" d="M73.416 38.9978V42.8138H73.8912H74.3756L74.329 39.6586L74.2825 36.4941L74.9067 37.6296C75.2514 38.2532 76.0806 39.6773 76.7607 40.7941L77.9998 42.8138H78.5029H79.006L78.9874 39.0164L78.9594 35.2283L78.5029 35.2004L78.0557 35.1725L78.093 38.3184L78.1302 41.4643L77.7017 40.6266C77.2917 39.8448 76.7327 38.8861 75.1396 36.2987L74.4781 35.2283L73.9471 35.2004L73.416 35.1725V38.9978Z" fill="#F4EEEE"/>
</g>
</g>
<defs>
<clipPath id="clip0_16_775">
<rect width="93.1667" height="43" fill="white"/>
</clipPath>
</defs>
</svg>
