<svg width="90" height="90" viewBox="0 0 90 90" fill="none" xmlns="http://www.w3.org/2000/svg">
<g clip-path="url(#clip0_16_821)">
<path d="M90 45C90 69.8529 69.8529 90 45.0001 90C20.1472 90 0 69.8529 0 45C0 20.1472 20.1472 0 45.0001 0C69.8529 0 90 20.1472 90 45ZM17.4585 45C17.4585 60.2107 29.7893 72.5415 45.0001 72.5415C60.2108 72.5415 72.5415 60.2107 72.5415 45C72.5415 29.7893 60.2108 17.4585 45.0001 17.4585C29.7893 17.4585 17.4585 29.7893 17.4585 45Z" fill="#A1203E"/>
<path d="M43.1563 46.8511C43.2812 43.7334 43.6874 40.2104 44.7186 36.7498C44.7497 38.6515 44.0312 43.3904 44.406 48.8152C44.6248 49.2206 44.8123 49.5947 44.9997 50C45.4684 48.9712 46.0935 47.9112 46.8432 46.8512C47.7807 45.5729 48.8118 44.5129 49.8742 43.64C49.9367 43.0476 49.999 42.4552 49.999 41.8317C50.0616 35.8769 47.0307 31.7927 45.6558 30.2339C45.3746 29.922 44.9058 29.922 44.6557 30.2339C43.2497 31.7927 40.0314 35.9704 40 42.0811C40 42.6111 40.0312 43.11 40.0625 43.6088C41.1565 44.4816 42.1877 45.5417 43.1563 46.8511Z" fill="#F4EEEE"/>
<path d="M59.9037 41.5268C59.8713 41.1722 59.5471 40.9466 59.1906 41.0109C57.1813 41.4301 51.9958 42.913 48.3012 47.9425C47.264 49.3611 46.5186 50.7796 46 52.1658C46.3889 53.2943 46.6482 54.358 46.8103 55.3898C48.9167 52.4237 51.7365 49.103 55.269 46.3949C54.0699 48.1357 50.0834 52.1014 47.0371 57.4532C47.0694 57.7433 47.0694 58.0333 47.0694 58.2914L47.1018 60C49.5973 59.3228 53.5836 57.6466 56.5976 53.6165C60.2602 48.7484 60.1306 43.5257 59.9037 41.5268Z" fill="#F4EEEE"/>
<path d="M45.9998 58.0061C45.9356 55.5693 45.3901 51.6131 42.5986 47.8152C38.9083 42.8781 33.7744 41.4222 31.7848 41.0108C31.4319 40.9474 31.1109 41.1691 31.0789 41.5173C30.8865 43.4794 30.7579 48.6065 34.352 53.3854C38.0742 58.3544 43.3046 59.6519 45.2619 60C42.2136 53.2905 37.0474 48.29 35.6355 46.2962C40.3845 49.9041 43.8498 54.588 45.9998 58.0061Z" fill="#F4EEEE"/>
<path d="M78 55.3139L78.4246 54L84 54.0668L83.6276 55.2195L79.3664 55.0942L82.781 57.8397L82.406 59L78 55.3139Z" fill="#F4EEEE"/>
<path d="M76.9081 61.2011L75.9224 60.54L74.8288 62.6438L74 62.088L75.6053 59L80 61.9477L78.4133 65L77.5846 64.4442L78.6598 62.376L77.7243 61.7486L76.7418 63.6384L75.9257 63.091L76.9081 61.2011Z" fill="#F4EEEE"/>
<path d="M73.17 68.1551L71.2328 70.2544L70.9124 69.9539C70.3191 69.3976 70.0152 68.7555 70.0006 68.0277C69.9859 67.2999 70.2583 66.633 70.8176 66.0269C71.4136 65.381 72.1162 65.0394 72.9251 65.0022C73.7344 64.9728 74.4397 65.24 75.0408 65.8037C75.646 66.3713 75.965 67.0611 75.9979 67.8729C76.0271 68.6888 75.7547 69.4077 75.1808 70.0298C74.8238 70.4165 74.4094 70.6898 73.9373 70.8496C73.4652 71.0094 72.9963 71.0418 72.5304 70.9471L72.7782 69.8629C73.0403 69.9227 73.3185 69.901 73.613 69.7978C73.9074 69.6946 74.1668 69.5214 74.3913 69.2782C74.7629 68.8755 74.936 68.4241 74.9103 67.9241C74.8927 67.4314 74.6842 66.9978 74.2847 66.6232C73.8932 66.256 73.4493 66.0814 72.953 66.0995C72.4607 66.1212 72.014 66.3494 71.613 66.784C71.3223 67.0991 71.1487 67.4271 71.0921 67.7683C71.0355 68.1095 71.0968 68.4348 71.2761 68.7442L72.4461 67.4763L73.17 68.1551Z" fill="#F4EEEE"/>
<path d="M64 72.7162L65.0166 72.1007L65.8725 72.7012L67.7634 71.5564L67.4768 70.6114L68.4866 70L70 75.2984L68.841 76L64 72.7162ZM68.6962 74.676L68.0501 72.5282L66.7488 73.3159L68.6962 74.676Z" fill="#F4EEEE"/>
<path d="M58.7975 78.3085L60.0219 81.5869L59.0072 82L57 76.6257L57.7721 76.3113L61.2053 78.6991L59.9781 75.4131L60.9928 75L63 80.3742L62.2279 80.6887L58.7975 78.3085Z" fill="#F4EEEE"/>
<path d="M46.0582 84L46.023 82.8936L47.9937 82.8047L47.9494 81.4133L46.0352 81.4997L46 80.3933L47.9143 80.307L47.8423 78.0438L48.8136 78L49 83.8673L46.0582 84Z" fill="#F4EEEE"/>
<path d="M39.4411 78L40.7155 78.1689L41.6159 80.2018L42.5141 80.3209L42.8196 78.4477L44 78.6041L43.1198 84L40.7249 83.6827C40.1717 83.6094 39.7298 83.3724 39.399 82.9715C39.0683 82.5707 38.9431 82.1236 39.0236 81.6303C39.0782 81.2963 39.2343 80.9993 39.4922 80.7395C39.7493 80.4848 40.0635 80.3085 40.4348 80.2108L39.4411 78ZM40.8871 82.6883L42.1016 82.8492L42.3619 81.2536L41.1474 81.0927C40.925 81.0632 40.7213 81.115 40.5365 81.248C40.3509 81.3861 40.24 81.5657 40.204 81.7867C40.168 82.0076 40.2172 82.2058 40.3517 82.3811C40.4862 82.5565 40.6647 82.6588 40.8871 82.6883Z" fill="#F4EEEE"/>
<path d="M37 77.3634L35.1283 83L34 82.6366L35.8717 77L37 77.3634Z" fill="#F4EEEE"/>
<path d="M30.1827 76.8624L30.6916 75.8385L28.8097 74.8608L29.2376 74L32 75.435L29.7305 80L27 78.5815L27.428 77.7207L29.2781 78.6818L29.7612 77.7101L28.0706 76.8319L28.492 75.9841L30.1827 76.8624Z" fill="#F4EEEE"/>
<path d="M23.0331 72.3696L20.8834 75.0216L20 74.3475L23.5242 70L24.1964 70.513L23.9618 74.6366L26.1167 71.9784L27 72.6526L23.4758 77L22.8036 76.4871L23.0331 72.3696Z" fill="#F4EEEE"/>
<path d="M16.9079 71L15.5784 69.348C15.1192 68.7776 14.9335 68.1386 15.021 67.431C15.1015 66.7226 15.4321 66.127 16.0127 65.6441C16.5934 65.1612 17.2333 64.9498 17.9323 65.01C18.632 65.063 19.2114 65.3747 19.6705 65.9452L21 67.5971L16.9079 71ZM19.5683 67.4188L18.8989 66.5869C18.6087 66.2264 18.2558 66.0304 17.8403 65.9991C17.4169 65.9742 17.0182 66.1173 16.644 66.4284C16.266 66.7428 16.0509 67.1101 15.9988 67.5304C15.9428 67.9539 16.0599 68.3458 16.35 68.7063L17.0195 69.5383L19.5683 67.4188Z" fill="#F4EEEE"/>
<path d="M11 63.1131L14.6715 61.168L13.7519 59.452L14.6052 59L16 61.6029L11.4752 64L11 63.1131Z" fill="#F4EEEE"/>
<path d="M7.35268 55.2663L7 54L10.6827 54.8826L12.6903 54.2013L13 55.3134L10.9924 55.9946L8.39262 59L8.03994 57.7338L9.84367 55.7714L7.35268 55.2663Z" fill="#F4EEEE"/>
<path d="M13 33.6984L12.5665 35L7 34.8866L7.38025 33.7449L11.6341 33.9051L8.24466 31.1494L8.62743 30L13 33.6984Z" fill="#F4EEEE"/>
<path d="M13.0892 27.7977L14.0726 28.4617L15.1732 26.367L16 26.9254L14.3845 30L10 27.0391L11.5969 24L12.4237 24.5583L11.3417 26.6176L12.275 27.2478L13.2637 25.3661L14.0779 25.9159L13.0892 27.7977Z" fill="#F4EEEE"/>
<path d="M16.8307 20.8446L18.7756 18.7525L19.0949 19.0541C19.6862 19.6127 19.9877 20.256 19.9996 20.9838C20.0115 21.7116 19.7367 22.3775 19.1752 22.9815C18.5768 23.6253 17.873 23.9642 17.0638 23.9982C16.2545 24.0247 15.5502 23.7549 14.9511 23.1887C14.348 22.6189 14.0315 21.928 14.0017 21.1161C13.9754 20.3 14.2505 19.5822 14.8268 18.9623C15.1852 18.5768 15.6006 18.3051 16.0733 18.1471C16.5459 17.9891 17.015 17.9584 17.4806 18.055L17.2288 19.1382C16.9669 19.0774 16.6886 19.0979 16.3937 19.2001C16.099 19.3021 15.8389 19.4745 15.6135 19.7169C15.2404 20.1182 15.0657 20.5689 15.0894 21.069C15.1052 21.5617 15.3121 21.996 15.7103 22.3722C16.1005 22.7409 16.5437 22.9171 17.0401 22.901C17.5324 22.8811 17.98 22.6545 18.3826 22.2214C18.6745 21.9075 18.8493 21.5801 18.9071 21.2391C18.965 20.8982 18.9049 20.5726 18.7267 20.2624L17.552 21.5261L16.8307 20.8446Z" fill="#F4EEEE"/>
<path d="M27 16.2991L25.9791 16.9111L25.1241 16.308L23.2254 17.4463L23.5087 18.3921L22.4946 19L21 13.6976L22.1637 13L27 16.2991ZM22.3035 14.3242L22.9421 16.4738L24.2487 15.6904L22.3035 14.3242Z" fill="#F4EEEE"/>
<path d="M31.2044 11.6962L29.9887 8.40977L31.0071 8L33 13.3878L32.2252 13.6995L28.7928 11.2961L30.0112 14.5903L28.9928 15L27 9.61231L27.7748 9.30053L31.2044 11.6962Z" fill="#F4EEEE"/>
<path d="M43.9641 6L43.9925 7.11125L42.007 7.18291L42.0428 8.58039L43.9716 8.51078L44 9.62203L42.0712 9.69164L42.1294 11.9647L41.1509 12L41 6.10697L43.9641 6Z" fill="#F4EEEE"/>
<path d="M51.5287 12L50.2628 11.8231L49.3842 9.79255L48.492 9.66798L48.1726 11.5313L47 11.3676L47.9203 6L50.2994 6.33222C50.8489 6.40895 51.2863 6.64801 51.612 7.04941C51.9375 7.45082 52.0582 7.89689 51.9741 8.38764C51.9172 8.71992 51.7593 9.01456 51.5006 9.27156C51.2429 9.52341 50.929 9.6968 50.5589 9.79173L51.5287 12ZM50.1298 7.32139L48.9233 7.15291L48.6511 8.74016L49.8576 8.90864C50.0786 8.9395 50.2815 8.88931 50.4664 8.75811C50.6522 8.62179 50.7639 8.44371 50.8016 8.22391C50.8393 8.00409 50.7919 7.80643 50.6596 7.63092C50.5273 7.45541 50.3507 7.35224 50.1298 7.32139Z" fill="#F4EEEE"/>
<path d="M54 12.6322L55.8807 7L57 7.3678L55.1193 13L54 12.6322Z" fill="#F4EEEE"/>
<path d="M59.8185 12.1349L59.3068 13.1565L61.1809 14.141L60.7508 15L58 13.5548L60.281 9L63 10.4284L62.5699 11.2874L60.7275 10.3195L60.2421 11.289L61.9256 12.1735L61.502 13.0193L59.8185 12.1349Z" fill="#F4EEEE"/>
<path d="M67.9574 16.6337L70.1233 13.997L71 14.6774L67.4494 19L66.7824 18.4823L67.0476 14.3601L64.8767 17.003L64 16.3226L67.5507 12L68.2176 12.5177L67.9574 16.6337Z" fill="#F4EEEE"/>
<path d="M74.1038 18L75.4273 19.6576C75.8844 20.2301 76.0678 20.8701 75.9777 21.5778C75.8947 22.2862 75.5621 22.8809 74.9797 23.3618C74.3974 23.8428 73.7569 24.0519 73.0582 23.9891C72.3587 23.9335 71.7805 23.6195 71.3235 23.0471L70 21.3895L74.1038 18ZM71.4308 21.5732L72.0973 22.408C72.3862 22.7696 72.7382 22.967 73.1537 22.9999C73.5769 23.0264 73.9761 22.8846 74.3514 22.5748C74.7305 22.2616 74.9468 21.8949 75.0004 21.4746C75.0579 21.0512 74.9423 20.6585 74.6534 20.2968L73.9869 19.462L71.4308 21.5732Z" fill="#F4EEEE"/>
<path d="M79 25.8943L75.3224 27.8216L76.2274 29.5521L75.3727 30L74 27.3751L78.5322 25L79 25.8943Z" fill="#F4EEEE"/>
<path d="M82.6554 34.7338L83 36L79.3178 35.0893L77.3027 35.7525L77 34.6404L79.0152 33.9773L81.6391 31L81.9838 32.2662L80.1642 34.2093L82.6554 34.7338Z" fill="#F4EEEE"/>
<path d="M7.5 47C8.32843 47 9 46.3284 9 45.5C9 44.6716 8.32843 44 7.5 44C6.67157 44 6 44.6716 6 45.5C6 46.3284 6.67157 47 7.5 47Z" fill="#F4EEEE"/>
<path d="M80.5 47C81.3284 47 82 46.3284 82 45.5C82 44.6716 81.3284 44 80.5 44C79.6716 44 79 44.6716 79 45.5C79 46.3284 79.6716 47 80.5 47Z" fill="#F4EEEE"/>
</g>
<defs>
<clipPath id="clip0_16_821">
<rect width="90" height="90" fill="white"/>
</clipPath>
</defs>
</svg>
