<svg width="90" height="90" viewBox="0 0 90 90" fill="none" xmlns="http://www.w3.org/2000/svg">
<g id="licenses-logo1.svg">
<path id="Vector" d="M89 44.5C89 69.0767 69.0766 89 44.5 89C19.9233 89 0 69.0767 0 44.5C0 19.9233 19.9233 0 44.5 0C69.0766 0 89 19.9233 89 44.5ZM17.2645 44.5C17.2645 59.5417 29.4582 71.7355 44.5 71.7355C59.5417 71.7355 71.7355 59.5417 71.7355 44.5C71.7355 29.4582 59.5417 17.2646 44.5 17.2646C29.4582 17.2646 17.2645 29.4582 17.2645 44.5Z" fill="#A1203E"/>
<path id="Vector_2" d="M78.9365 64.1033L78.3968 65L74 62.3257L74.5206 61.4605L77.3722 63.195L76.0795 60.7093L76.1403 60.6083L78.9241 60.6022L76.0787 58.8714L76.6031 58L81 60.6744L80.4603 61.5711L77.6174 61.5757L78.9365 64.1033Z" fill="#F4EEEE"/>
<path id="Vector_3" d="M68 69.3521L68.8537 68.5925L69.7455 69.0807L71.3334 67.668L70.9196 66.7545L71.7676 66L74 71.1341L73.0268 72L68 69.3521ZM72.6867 70.6852L71.7513 68.6083L70.6586 69.5805L72.6867 70.6852Z" fill="#F4EEEE"/>
<path id="Vector_4" d="M67 76.7569L65.011 77.7123C64.3241 78.0422 63.63 78.0884 62.9285 77.8508C62.2247 77.6199 61.693 77.167 61.3336 76.492C60.9742 75.8169 60.9052 75.1418 61.1266 74.4665C61.3409 73.789 61.7914 73.2853 62.4783 72.9553L64.4673 72L67 76.7569ZM63.9575 73.3713L62.9559 73.8524C62.5218 74.0608 62.2413 74.3663 62.1142 74.7688C61.9919 75.1802 62.0464 75.6035 62.278 76.0383C62.512 76.4778 62.8372 76.7681 63.2538 76.9094C63.6729 77.0551 64.0994 77.0238 64.5335 76.8153L65.5351 76.3342L63.9575 73.3713Z" fill="#F4EEEE"/>
<path id="Vector_5" d="M55.4424 78.4126L55.2062 77.2271L53.1986 77.7196L53 76.7229L55.9467 76L57 81.2855L54.0873 82L53.8886 81.0034L55.8623 80.5192L55.6381 79.3941L53.8346 79.8365L53.639 78.855L55.4424 78.4126Z" fill="#F4EEEE"/>
<path id="Vector_6" d="M44 78.148L43.2116 84L42 83.852L42.7883 78L44 78.148Z" fill="#F4EEEE"/>
<path id="Vector_7" d="M35.1795 78.5301L34.0574 81.9029L33 81.529L34.8396 76L35.644 76.2845L36.8178 80.4778L37.9427 77.0971L39 77.471L37.1604 83L36.356 82.7155L35.1795 78.5301Z" fill="#F4EEEE"/>
<path id="Vector_8" d="M24.2448 70.6247C24.6873 71.0264 24.9357 71.4792 24.99 71.9833C25.0442 72.4873 24.8783 72.9466 24.4922 73.3612L22.0356 76L21.2582 75.2945L23.6575 72.7172C23.8523 72.5081 23.9447 72.2888 23.935 72.0594C23.918 71.8303 23.7865 71.6042 23.5407 71.381C23.2947 71.1578 23.0574 71.0492 22.8286 71.0551C22.5925 71.0613 22.3771 71.1691 22.1824 71.3782L19.783 73.9553L19 73.2447L21.4567 70.6058C21.8427 70.1912 22.2923 69.9895 22.8055 70.0004C23.3187 70.0114 23.7984 70.2195 24.2448 70.6247Z" fill="#F4EEEE"/>
<path id="Vector_9" d="M17.5934 63.9962C17.8615 64.4321 17.997 64.8642 17.9999 65.2928C18.0029 65.7213 17.8833 66.1118 17.6412 66.4644L16.7713 66.0038C17.0876 65.5323 17.0896 65.0427 16.7773 64.5349C16.6315 64.298 16.4826 64.1482 16.3307 64.0855C16.1788 64.0227 16.0356 64.0387 15.9012 64.1334C15.7549 64.2365 15.6852 64.3856 15.692 64.581C15.6949 64.7791 15.7595 65.0914 15.8859 65.5179C16.0147 65.9851 16.0749 66.3824 16.0666 66.7098C16.0446 67.1254 15.8458 67.4657 15.4703 67.7303C15.0908 67.9977 14.7052 68.0663 14.3133 67.936C13.9136 67.8113 13.5888 67.5459 13.339 67.1398C13.1203 66.7843 13.0074 66.412 13.0004 66.0228C12.9933 65.6336 13.0911 65.2583 13.2939 64.8971L14.1441 65.3534C13.8976 65.7817 13.8941 66.1905 14.1335 66.5798C14.2429 66.7575 14.3696 66.8714 14.5137 66.9214C14.6539 66.9743 14.7853 66.9576 14.9079 66.8712C15.0383 66.7793 15.1099 66.6469 15.1226 66.4742C15.1276 66.2888 15.0766 66.0033 14.9697 65.6176L14.8772 65.2461C14.8592 65.18 14.8342 65.0611 14.8023 64.8895C14.7677 64.7319 14.7519 64.6097 14.755 64.5226C14.7461 64.2317 14.7827 64.0057 14.865 63.8446C14.9634 63.6176 15.1253 63.4247 15.3506 63.2659C15.734 62.9957 16.1308 62.9314 16.541 63.073C16.9511 63.2147 17.3019 63.5224 17.5934 63.9962Z" fill="#F4EEEE"/>
<path id="Vector_10" d="M13.3618 55L13.733 56.1329L12.9422 56.7817L13.6326 58.889L14.6313 58.8746L15 60L9.42319 59.992L9 58.7005L13.3618 55ZM10.3394 58.924L12.6078 58.8962L12.1326 57.4461L10.3394 58.924Z" fill="#F4EEEE"/>
<path id="Vector_11" d="M9.76885 28.9748L10.2314 28L15 30.2977L14.5537 31.2382L11.4609 29.748L13.0332 32.1671L12.9811 32.2769L10.1322 32.5657L13.2182 34.0527L12.7686 35L8 32.7023L8.46256 31.7275L11.3722 31.4342L9.76885 28.9748Z" fill="#F4EEEE"/>
<path id="Vector_12" d="M20 22.2064L19.246 23.066L18.3321 22.6558L16.9296 24.2546L17.4211 25.1462L16.672 26L14 20.9799L14.8596 20L20 22.2064ZM15.319 21.3085L16.4314 23.3361L17.3966 22.2358L15.319 21.3085Z" fill="#F4EEEE"/>
<path id="Vector_13" d="M20 14.5145L21.848 13.3981C22.4861 13.0126 23.1581 12.9071 23.864 13.0815C24.5716 13.249 25.1323 13.651 25.5462 14.2875C25.96 14.9241 26.0908 15.5857 25.9386 16.2726C25.7938 16.9611 25.4022 17.4981 24.7641 17.8836L22.9161 19L20 14.5145ZM23.2836 17.6L24.2142 17.0378C24.6175 16.7941 24.862 16.4679 24.948 16.0589C25.0284 15.6415 24.9353 15.2278 24.6687 14.8176C24.3994 14.4032 24.055 14.1442 23.6358 14.0405C23.2137 13.9325 22.8011 14.0004 22.3978 14.244L21.4672 14.8062L23.2836 17.6Z" fill="#F4EEEE"/>
<path id="Vector_14" d="M31.0534 12.6122L31.4377 13.7363L33.6769 13.0552L34 14.0004L30.7132 15L29 9.98805L32.2488 9L32.5719 9.94512L30.3705 10.6146L30.7352 11.6814L32.7468 11.0697L33.065 12.0004L31.0534 12.6122Z" fill="#F4EEEE"/>
<path id="Vector_15" d="M43 11.9659L43.15 7L44 7.03407L43.85 12L43 11.9659Z" fill="#F4EEEE"/>
<path id="Vector_16" d="M52.3028 10.79L53.034 7.71373L54 7.95693L52.8013 13L52.0663 12.815L50.699 9.20279L49.9661 12.2863L49 12.0431L50.1987 7L50.9338 7.18504L52.3028 10.79Z" fill="#F4EEEE"/>
<path id="Vector_17" d="M63.9223 17.5093C63.4342 17.1527 63.1385 16.728 63.0351 16.2351C62.9318 15.7423 63.0564 15.2736 63.4088 14.8291L65.652 12L66.5094 12.6263L64.3185 15.3893C64.1407 15.6136 64.0677 15.8385 64.0996 16.0642C64.1389 16.2889 64.2941 16.5003 64.5653 16.6984C64.8364 16.8965 65.088 16.9823 65.32 16.9556C65.5592 16.928 65.7678 16.8022 65.9455 16.5779L68.1364 13.8149L69 14.4457L66.7568 17.2749C66.4043 17.7194 65.9669 17.9594 65.4444 17.9952C64.922 18.0308 64.4146 17.8689 63.9223 17.5093Z" fill="#F4EEEE"/>
<path id="Vector_18" d="M69.5308 23.1668C69.223 22.7691 69.0492 22.3624 69.0094 21.9467C68.9695 21.5309 69.0566 21.1404 69.2705 20.7752L70.1873 21.1398C69.9088 21.6276 69.9489 22.1031 70.3076 22.5664C70.4749 22.7826 70.6379 22.914 70.7965 22.9604C70.9551 23.007 71.0981 22.9779 71.2256 22.8732C71.3642 22.7593 71.4217 22.6079 71.398 22.4189C71.3781 22.2268 71.2861 21.9297 71.1219 21.5277C70.9519 21.0863 70.8571 20.7063 70.8373 20.3878C70.8237 19.9821 70.9948 19.633 71.3508 19.3405C71.7105 19.0449 72.0936 18.9418 72.4998 19.0311C72.9137 19.1143 73.2641 19.3411 73.5509 19.7117C73.802 20.036 73.9478 20.3868 73.9884 20.764C74.0291 21.1411 73.9626 21.5147 73.7892 21.8846L72.8926 21.5223C73.1043 21.0831 73.0727 20.6858 72.7977 20.3306C72.6722 20.1685 72.5346 20.07 72.385 20.035C72.2391 19.997 72.1081 20.0257 71.9919 20.1212C71.8682 20.2227 71.8074 20.3581 71.8094 20.5269C71.8204 20.7074 71.8964 20.9798 72.0373 21.344L72.1625 21.6959C72.1864 21.7584 72.2218 21.8714 72.2687 22.0349C72.3171 22.1847 72.3436 22.302 72.3479 22.3868C72.3819 22.6684 72.3644 22.8912 72.2953 23.0553C72.2156 23.285 72.069 23.4876 71.8554 23.6631C71.492 23.9618 71.0973 24.0619 70.6715 23.9633C70.2457 23.8647 69.8655 23.5992 69.5308 23.1668Z" fill="#F4EEEE"/>
<path id="Vector_19" d="M76.0291 32L75.5694 30.9794L76.2911 30.3043L75.4359 28.4061L74.4567 28.5096L74 27.4958L79.4759 27L80 28.1634L76.0291 32ZM78.6662 28.0764L76.4416 28.3069L77.0301 29.6132L78.6662 28.0764Z" fill="#F4EEEE"/>
<path id="Vector_20" d="M29 34V45.6667H59V43.3333H45.1538V41H59V38.6667H45.1538V36.3334H59V34H29ZM31.3077 35.1667C31.6137 35.1667 31.9071 35.2897 32.1235 35.5084C32.3399 35.7272 32.4615 36.0239 32.4615 36.3334C32.4615 36.6428 32.3399 36.9395 32.1235 37.1583C31.9071 37.3771 31.6137 37.5 31.3077 37.5C31.0016 37.5 30.7081 37.3771 30.4917 37.1583C30.2754 36.9395 30.1538 36.6428 30.1538 36.3334C30.1538 36.0239 30.2754 35.7272 30.4917 35.5084C30.7081 35.2897 31.0016 35.1667 31.3077 35.1667ZM35.923 35.1667C36.2291 35.1667 36.5226 35.2897 36.739 35.5084C36.9553 35.7272 37.0769 36.0239 37.0769 36.3334C37.0769 36.6428 36.9553 36.9395 36.739 37.1583C36.5226 37.3771 36.2291 37.5 35.923 37.5C35.617 37.5 35.3236 37.3771 35.1072 37.1583C34.8907 36.9395 34.7692 36.6428 34.7692 36.3334C34.7692 36.0239 34.8907 35.7272 35.1072 35.5084C35.3236 35.2897 35.617 35.1667 35.923 35.1667ZM40.5384 35.1667C40.8444 35.1667 41.1379 35.2897 41.3543 35.5084C41.5707 35.7272 41.6922 36.0239 41.6922 36.3334C41.6922 36.6428 41.5707 36.9395 41.3543 37.1583C41.1379 37.3771 40.8444 37.5 40.5384 37.5C40.2324 37.5 39.9389 37.3771 39.7225 37.1583C39.5062 36.9395 39.3846 36.6428 39.3846 36.3334C39.3846 36.0239 39.5062 35.7272 39.7225 35.5084C39.9389 35.2897 40.2324 35.1667 40.5384 35.1667ZM33.6153 38.6667C33.9213 38.6667 34.2149 38.7896 34.4312 39.0084C34.6476 39.2272 34.7692 39.5239 34.7692 39.8333C34.7692 40.1428 34.6476 40.4395 34.4312 40.6583C34.2149 40.877 33.9213 41 33.6153 41C33.3093 41 33.0158 40.877 32.7995 40.6583C32.5831 40.4395 32.4615 40.1428 32.4615 39.8333C32.4615 39.5239 32.5831 39.2272 32.7995 39.0084C33.0158 38.7896 33.3093 38.6667 33.6153 38.6667ZM38.2308 38.6667C38.5368 38.6667 38.8302 38.7896 39.0466 39.0084C39.2631 39.2272 39.3846 39.5239 39.3846 39.8333C39.3846 40.1428 39.2631 40.4395 39.0466 40.6583C38.8302 40.877 38.5368 41 38.2308 41C37.9247 41 37.6312 40.877 37.4148 40.6583C37.1984 40.4395 37.0769 40.1428 37.0769 39.8333C37.0769 39.5239 37.1984 39.2272 37.4148 39.0084C37.6312 38.7896 37.9247 38.6667 38.2308 38.6667ZM42.8461 38.6667C43.1521 38.6667 43.4457 38.7896 43.662 39.0084C43.8784 39.2272 44 39.5239 44 39.8333C44 40.1428 43.8784 40.4395 43.662 40.6583C43.4457 40.877 43.1521 41 42.8461 41C42.5401 41 42.2466 40.877 42.0303 40.6583C41.8138 40.4395 41.6922 40.1428 41.6922 39.8333C41.6922 39.5239 41.8138 39.2272 42.0303 39.0084C42.2466 38.7896 42.5401 38.6667 42.8461 38.6667ZM31.3077 42.1667C31.6137 42.1667 31.9071 42.2896 32.1235 42.5084C32.3399 42.7272 32.4615 43.0239 32.4615 43.3333C32.4615 43.6428 32.3399 43.9395 32.1235 44.1583C31.9071 44.377 31.6137 44.5 31.3077 44.5C31.0016 44.5 30.7081 44.377 30.4917 44.1583C30.2754 43.9395 30.1538 43.6428 30.1538 43.3333C30.1538 43.0239 30.2754 42.7272 30.4917 42.5084C30.7081 42.2896 31.0016 42.1667 31.3077 42.1667ZM35.923 42.1667C36.2291 42.1667 36.5226 42.2896 36.739 42.5084C36.9553 42.7272 37.0769 43.0239 37.0769 43.3333C37.0769 43.6428 36.9553 43.9395 36.739 44.1583C36.5226 44.377 36.2291 44.5 35.923 44.5C35.617 44.5 35.3236 44.377 35.1072 44.1583C34.8907 43.9395 34.7692 43.6428 34.7692 43.3333C34.7692 43.0239 34.8907 42.7272 35.1072 42.5084C35.3236 42.2896 35.617 42.1667 35.923 42.1667ZM40.5384 42.1667C40.8444 42.1667 41.1379 42.2896 41.3543 42.5084C41.5707 42.7272 41.6922 43.0239 41.6922 43.3333C41.6922 43.6428 41.5707 43.9395 41.3543 44.1583C41.1379 44.377 40.8444 44.5 40.5384 44.5C40.2324 44.5 39.9389 44.377 39.7225 44.1583C39.5062 43.9395 39.3846 43.6428 39.3846 43.3333C39.3846 43.0239 39.5062 42.7272 39.7225 42.5084C39.9389 42.2896 40.2324 42.1667 40.5384 42.1667ZM29 48V50.3333H59V48H29ZM29 52.6666V55H59V52.6666H29Z" fill="#F4EEEE"/>
<path id="Vector_21" d="M7.5 47C8.32843 47 9 46.3284 9 45.5C9 44.6716 8.32843 44 7.5 44C6.67157 44 6 44.6716 6 45.5C6 46.3284 6.67157 47 7.5 47Z" fill="#F4EEEE"/>
<path id="Vector_22" d="M80.5 47C81.3284 47 82 46.3284 82 45.5C82 44.6716 81.3284 44 80.5 44C79.6716 44 79 44.6716 79 45.5C79 46.3284 79.6716 47 80.5 47Z" fill="#F4EEEE"/>
</g>
</svg>
