<svg width="90" height="90" viewBox="0 0 90 90" fill="none" xmlns="http://www.w3.org/2000/svg">
<g id="licenses-logo2.svg" clip-path="url(#clip0_16_877)">
<path id="Vector" d="M90 45C90 69.8529 69.8529 90 45.0001 90C20.1472 90 0 69.8529 0 45C0 20.1471 20.1472 0 45.0001 0C69.8529 0 90 20.1471 90 45ZM17.4585 45C17.4585 60.2108 29.7893 72.5415 45.0001 72.5415C60.2108 72.5415 72.5415 60.2108 72.5415 45C72.5415 29.7893 60.2108 17.4585 45.0001 17.4585C29.7893 17.4585 17.4585 29.7893 17.4585 45Z" fill="#A1203E"/>
<path id="Vector_2" d="M79.7254 63L78.8619 62.5867L79.7157 60.7056L78.6297 60.1858L77.8004 62.0131L76.9369 61.5998L77.7663 59.7725L76 58.927L76.4208 58L81 60.1919L79.7254 63Z" fill="#F4EEEE"/>
<path id="Vector_3" d="M78 66.1684L76.7745 67.9173C76.3513 68.5213 75.7923 68.8723 75.0976 68.9701C74.404 69.0752 73.7529 68.903 73.1443 68.4533C72.5356 68.0038 72.1695 67.4246 72.0461 66.716C71.9156 66.0086 72.062 65.3529 72.4853 64.749L73.7108 63L78 66.1684ZM73.9112 64.4657L73.2941 65.3465C73.0266 65.7282 72.9317 66.129 73.0093 66.5491C73.095 66.9753 73.334 67.3332 73.7261 67.6229C74.1224 67.9156 74.5268 68.033 74.9394 67.975C75.3562 67.9199 75.6982 67.7016 75.9657 67.32L76.5829 66.4392L73.9112 64.4657Z" fill="#F4EEEE"/>
<path id="Vector_4" d="M67 71.4116L67.8396 70.6386L68.7346 71.1162L70.2964 69.6784L69.8716 68.7679L70.7057 68L73 73.1188L72.0427 74L67 71.4116ZM71.6859 72.6861L70.7256 70.6158L69.6509 71.6053L71.6859 72.6861Z" fill="#F4EEEE"/>
<path id="Vector_5" d="M59 76.8508L60.0097 76.3334L61.7942 77.5201L62.5058 77.1554L61.6769 75.4793L62.6121 75L65 79.8287L63.1024 80.8009C62.6642 81.0254 62.2142 81.0601 61.7524 80.9047C61.2904 80.7495 60.9504 80.4511 60.7321 80.0097C60.5842 79.7107 60.5302 79.3896 60.57 79.0465C60.6121 78.7079 60.7391 78.4036 60.951 78.1337L59 76.8508ZM62.6624 79.9111L63.6247 79.418L62.9186 77.9901L61.9563 78.4832C61.7801 78.5734 61.6628 78.72 61.6046 78.9228C61.5485 79.1301 61.5695 79.3327 61.6673 79.5304C61.765 79.7282 61.9112 79.8636 62.106 79.9367C62.3008 80.01 62.4862 80.0013 62.6624 79.9111Z" fill="#F4EEEE"/>
<path id="Vector_6" d="M56.9639 80.392L56.5941 79.2574L54.311 79.9062L54 78.9523L57.3513 78L59 83.0587L55.6874 84L55.3765 83.046L57.6211 82.4083L57.2701 81.3315L55.219 81.9143L54.9129 80.9748L56.9639 80.392Z" fill="#F4EEEE"/>
<path id="Vector_7" d="M49.4732 81.6765L47.0608 81.9454L47.019 81.5768C46.9419 80.8944 47.0993 80.3171 47.4913 79.845C47.8834 79.3729 48.4277 79.098 49.1241 79.0203C49.8664 78.9376 50.5097 79.1078 51.054 79.5308C51.5942 79.9589 51.9035 80.5187 51.9816 81.2103C52.0603 81.9063 51.8864 82.5223 51.4598 83.0582C51.0286 83.5946 50.4556 83.9026 49.7409 83.9823C49.2964 84.0319 48.8773 83.9773 48.4835 83.8184C48.0897 83.6596 47.7682 83.4213 47.5188 83.1037L48.2773 82.5491C48.414 82.732 48.6061 82.8718 48.8537 82.9686C49.1012 83.0654 49.3648 83.0983 49.6443 83.0671C50.1071 83.0155 50.4681 82.8232 50.7274 82.4903C50.9878 82.1664 51.092 81.7748 51.04 81.3152C50.9891 80.8648 50.798 80.5083 50.4667 80.2458C50.136 79.9879 49.7209 79.8867 49.2214 79.9423C48.8595 79.9827 48.566 80.096 48.3412 80.2824C48.1164 80.4687 47.9766 80.71 47.9219 81.0063L49.379 80.8439L49.4732 81.6765Z" fill="#F4EEEE"/>
<path id="Vector_8" d="M44 80.0443L43.8134 85L43 84.9558L43.1866 80L44 80.0443Z" fill="#F4EEEE"/>
<path id="Vector_9" d="M39.3203 79.0426C39.7934 79.1259 40.1739 79.2996 40.4618 79.5637C40.7499 79.8278 40.9292 80.1539 41 80.5421L40.1016 80.8638C40.0018 80.35 39.6764 80.0445 39.1253 79.9474C38.8682 79.9021 38.6669 79.913 38.5218 79.9802C38.3767 80.0474 38.2901 80.1574 38.262 80.3101C38.2314 80.4763 38.2836 80.6178 38.4186 80.7343C38.5528 80.8553 38.8051 81.0042 39.1755 81.1807C39.5749 81.381 39.881 81.5856 40.0937 81.7947C40.3563 82.0682 40.4483 82.4184 40.3697 82.8452C40.2903 83.2764 40.074 83.5885 39.7208 83.7814C39.366 83.9832 38.9683 84.0453 38.5274 83.9676C38.1416 83.8996 37.8164 83.7473 37.5519 83.5105C37.2873 83.2737 37.1033 82.9723 37 82.6062L37.8822 82.2955C38.0007 82.7338 38.2711 82.9902 38.6936 83.0647C38.8865 83.0986 39.0486 83.0808 39.18 83.0112C39.3104 82.946 39.3886 82.8439 39.4142 82.7047C39.4415 82.5563 39.4018 82.4242 39.2952 82.308C39.1748 82.1894 38.9496 82.0476 38.6196 81.8828L38.3088 81.7168C38.2524 81.6883 38.1562 81.6319 38.0199 81.5476C37.8913 81.4739 37.7989 81.409 37.7429 81.3527C37.5427 81.1783 37.4168 81.0123 37.3652 80.8548C37.2805 80.6451 37.2618 80.4122 37.3089 80.1561C37.3891 79.7203 37.6158 79.4032 37.989 79.2046C38.3622 79.0059 38.806 78.952 39.3203 79.0426Z" fill="#F4EEEE"/>
<path id="Vector_10" d="M34.5864 84L31 82.6604L31.3248 81.6888L32.641 82.1805L34.039 78L35 78.359L33.602 82.5395L34.9112 83.0285L34.5864 84Z" fill="#F4EEEE"/>
<path id="Vector_11" d="M28.1731 77.8878L28.7058 76.8852L26.8967 75.8429L27.3446 75L30 76.5299L27.6248 81L25 79.4878L25.4479 78.6448L27.2264 79.6695L27.7319 78.718L26.1068 77.7816L26.5479 76.9515L28.1731 77.8878Z" fill="#F4EEEE"/>
<path id="Vector_12" d="M22.6629 71L23.5958 71.7461L23.2473 73.9556L23.9047 74.4814L25.136 72.9779L26 73.6689L22.4532 78L20.7001 76.598C20.2953 76.2742 20.0658 75.8585 20.0116 75.351C19.9575 74.8435 20.0925 74.3918 20.4168 73.9958C20.6364 73.7277 20.918 73.5399 21.2616 73.4324C21.6018 73.329 21.9465 73.3214 22.2957 73.4096L22.6629 71ZM21.3537 75.7998L22.2428 76.5108L23.2916 75.23L22.4026 74.519C22.2398 74.3888 22.0493 74.3388 21.8311 74.3691C21.6095 74.4035 21.4261 74.5095 21.2809 74.6868C21.1356 74.8642 21.0708 75.0614 21.0862 75.2786C21.1018 75.4959 21.1909 75.6696 21.3537 75.7998Z" fill="#F4EEEE"/>
<path id="Vector_13" d="M18.7111 71.1472L19.5901 70.3613L18.1558 68.6607L18.8948 68L21 70.496L17.0809 74L15 71.5328L15.7391 70.872L17.149 72.5437L17.9832 71.7979L16.6948 70.2704L17.4226 69.6196L18.7111 71.1472Z" fill="#F4EEEE"/>
<path id="Vector_14" d="M12.4303 69L11.3626 67.1089C10.9938 66.4558 10.9064 65.7769 11.1001 65.072C11.287 64.3652 11.7045 63.8131 12.353 63.4155C13.0015 63.0179 13.6675 62.9056 14.351 63.0788C15.0364 63.2446 15.5635 63.6541 15.9322 64.3071L17 66.1983L12.4303 69ZM15.6083 65.7878L15.0705 64.8355C14.8375 64.4227 14.5175 64.1673 14.1104 64.0689C13.6946 63.9757 13.2778 64.0573 12.86 64.3135C12.4378 64.5723 12.1692 64.911 12.0541 65.3296C11.9346 65.7508 11.9913 66.1679 12.2243 66.5805L12.762 67.5329L15.6083 65.7878Z" fill="#F4EEEE"/>
<path id="Vector_15" d="M10.393 27L11.2492 27.4361L10.316 29.2363L11.3927 29.7847L12.2992 28.0359L13.1553 28.472L12.2489 30.2208L14 31.1127L13.5401 32L9 29.6875L10.393 27Z" fill="#F4EEEE"/>
<path id="Vector_16" d="M12 24.7015L13.2829 23.0057C13.7259 22.4201 14.2962 22.0907 14.9938 22.0176C15.6905 21.9373 16.3355 22.1312 16.9289 22.5993C17.5224 23.0673 17.869 23.6557 17.9689 24.3642C18.0757 25.0719 17.9077 25.7186 17.4647 26.3042L16.1817 28L12 24.7015ZM16.03 26.5362L16.6761 25.6822C16.9561 25.3121 17.0642 24.917 17.0006 24.4966C16.929 24.0701 16.7021 23.706 16.3198 23.4045C15.9334 23.0998 15.5332 22.969 15.1189 23.0124C14.7005 23.0525 14.3514 23.2577 14.0714 23.6277L13.4253 24.4817L16.03 26.5362Z" fill="#F4EEEE"/>
<path id="Vector_17" d="M24 19.7498L23.1218 20.4863L22.2353 19.9801L20.602 21.3499L20.9966 22.2685L20.1244 23L18 17.8396L19.0011 17L24 19.7498ZM19.3118 18.3162L20.2038 20.4046L21.3278 19.4619L19.3118 18.3162Z" fill="#F4EEEE"/>
<path id="Vector_18" d="M32 15.2801L30.9532 15.7609L29.1797 14.5061L28.442 14.845L29.225 16.5547L28.2555 17L26 12.0749L27.9672 11.1713C28.4215 10.9626 28.8809 10.9446 29.3454 11.1173C29.81 11.2899 30.1454 11.6015 30.3516 12.0517C30.4912 12.3567 30.5345 12.6802 30.4815 13.0225C30.4264 13.3601 30.2861 13.6602 30.0605 13.9227L32 15.2801ZM28.3828 12.079L27.3852 12.5372L28.0521 13.9936L29.0498 13.5354C29.2324 13.4514 29.3571 13.3091 29.4238 13.1081C29.4883 12.9025 29.4744 12.6987 29.3821 12.4971C29.2897 12.2954 29.1457 12.1543 28.9501 12.0738C28.7546 11.9933 28.5655 11.995 28.3828 12.079Z" fill="#F4EEEE"/>
<path id="Vector_19" d="M33.5967 11.5985L33.8657 12.7567L35.7738 12.1803L36 13.154L33.1992 14L32 8.83623L34.7684 8L34.9945 8.97374L33.1187 9.54038L33.374 10.6395L35.0881 10.1218L35.3108 11.0808L33.5967 11.5985Z" fill="#F4EEEE"/>
<path id="Vector_20" d="M40.5376 9.32277L42.9634 9.14294L42.9913 9.51285C43.043 10.1978 42.8638 10.7691 42.4535 11.2266C42.0433 11.6841 41.488 11.9389 40.7876 11.9908C40.0412 12.0461 39.4035 11.8523 38.8743 11.4093C38.3494 10.9615 38.0607 10.3905 38.0083 9.69637C37.9556 8.99762 38.1529 8.3883 38.6001 7.86835C39.052 7.34806 39.6372 7.06128 40.356 7.00798C40.8029 6.97484 41.2205 7.04491 41.6089 7.21818C41.9972 7.39143 42.3104 7.64147 42.5482 7.96825L41.7678 8.49453C41.6377 8.3067 41.4506 8.15985 41.2064 8.05397C40.962 7.94809 40.6994 7.90557 40.4183 7.92641C39.953 7.96091 39.5843 8.1398 39.3122 8.46307C39.0393 8.7772 38.9203 9.16489 38.9552 9.62615C38.9893 10.0782 39.1673 10.4416 39.4892 10.7162C39.8107 10.9863 40.2226 11.1027 40.7248 11.0655C41.0887 11.0385 41.3868 10.936 41.6189 10.7581C41.8511 10.5801 42 10.3441 42.0659 10.0499L40.6007 10.1585L40.5376 9.32277Z" fill="#F4EEEE"/>
<path id="Vector_21" d="M46 11.9229L46.2871 7L47 7.07706L46.7129 12L46 11.9229Z" fill="#F4EEEE"/>
<path id="Vector_22" d="M50.5978 11.9406C50.1361 11.8413 49.7684 11.6549 49.4947 11.3813C49.221 11.1076 49.0561 10.7757 49 10.3854L49.8936 10.0942C49.9738 10.611 50.2828 10.9273 50.8207 11.0428C51.0716 11.0968 51.2696 11.0926 51.4145 11.0304C51.5594 10.9682 51.6482 10.8612 51.6812 10.7095C51.717 10.5444 51.6706 10.4014 51.542 10.2804C51.4144 10.1549 51.1717 9.9976 50.814 9.80866C50.4287 9.59511 50.1352 9.38029 49.9335 9.16412C49.685 8.88194 49.6069 8.52891 49.6988 8.10507C49.7918 7.67677 50.0149 7.3722 50.3685 7.19137C50.724 7.0016 51.1168 6.95297 51.5472 7.04546C51.9237 7.12638 52.2377 7.28962 52.4894 7.53516C52.7411 7.7807 52.9113 8.08812 53 8.45742L52.1228 8.73813C52.0217 8.29617 51.7649 8.03085 51.3526 7.94222C51.1643 7.90176 51.0045 7.9141 50.8731 7.97924C50.7426 8.03993 50.6624 8.13942 50.6324 8.27773C50.6005 8.42496 50.6348 8.55842 50.7356 8.67813C50.8497 8.80074 51.0659 8.9499 51.3844 9.12577L51.6838 9.30224C51.7383 9.33261 51.8308 9.39217 51.9617 9.481C52.0855 9.55897 52.174 9.62701 52.227 9.68513C52.4176 9.86618 52.5356 10.0363 52.5807 10.1955C52.6567 10.4079 52.667 10.6412 52.6118 10.8956C52.518 11.3283 52.2843 11.6376 51.9109 11.8236C51.5375 12.0094 51.0998 12.0485 50.5978 11.9406Z" fill="#F4EEEE"/>
<path id="Vector_23" d="M56.5963 8L60 9.48045L59.6532 10.4352L58.4041 9.89188L56.9121 14L56 13.6032L57.4921 9.49511L56.2496 8.95472L56.5963 8Z" fill="#F4EEEE"/>
<path id="Vector_24" d="M61.8369 14.0846L61.2794 15.064L63.0125 16.1765L62.5437 17L60 15.3672L62.4856 11L65 12.614L64.5312 13.4375L62.8275 12.3439L62.2985 13.2735L63.8553 14.2728L63.3936 15.0839L61.8369 14.0846Z" fill="#F4EEEE"/>
<path id="Vector_25" d="M68.2049 22L67.309 21.2183L67.7374 19.0193L67.1061 18.4685L65.8298 19.9279L65 19.2039L68.6766 15L70.3602 16.4689C70.7491 16.8081 70.9607 17.2328 70.9952 17.7429C71.0297 18.2529 70.8788 18.7001 70.5427 19.0845C70.3151 19.3447 70.0291 19.5222 69.6847 19.617C69.3438 19.7078 69.002 19.7027 68.6595 19.6014L68.2049 22ZM69.6827 17.2436L68.8289 16.4987L67.7417 17.7418L68.5955 18.4868C68.7518 18.6231 68.9386 18.6802 69.1559 18.658C69.3767 18.6318 69.5624 18.5327 69.713 18.3606C69.8635 18.1883 69.9352 17.9933 69.928 17.7752C69.9208 17.5572 69.839 17.38 69.6827 17.2436Z" fill="#F4EEEE"/>
<path id="Vector_26" d="M72.2981 21.8234L71.3965 22.5846L72.7614 24.36L72.0034 25L70 22.3941L74.0199 19L76 21.5758L75.2421 22.2159L73.9002 20.4706L73.0446 21.193L74.2707 22.7879L73.5242 23.4182L72.2981 21.8234Z" fill="#F4EEEE"/>
<path id="Vector_27" d="M77.6775 24L78.6813 25.9471C79.0279 26.6195 79.0918 27.3073 78.873 28.0104C78.661 28.7157 78.2232 29.2562 77.5594 29.6322C76.8957 30.0082 76.2243 30.0959 75.5454 29.8953C74.8643 29.7019 74.3505 29.269 74.0039 28.5966L73 26.6494L77.6775 24ZM74.3804 27.1164L74.8859 28.097C75.1049 28.5219 75.4167 28.7918 75.8212 28.9065C76.2346 29.0162 76.6551 28.9499 77.0828 28.7077C77.5149 28.4629 77.796 28.1318 77.926 27.7142C78.0605 27.2942 78.0183 26.8717 77.7993 26.4468L77.2937 25.4661L74.3804 27.1164Z" fill="#F4EEEE"/>
<path id="Vector_28" d="M35.1005 39V41.64H29.6744V44.96H34.9455V47.6H29.6744V53H27V39H35.1005ZM37.0492 39H42.4367C44.297 39 45.8474 39.6733 47.0877 41.02C48.3409 42.3534 48.9674 44.0133 48.9674 46C48.9674 47.9866 48.3409 49.6466 47.0877 50.98C45.8474 52.3267 44.297 53 42.4367 53H37.0492V39ZM39.7236 50.36H42.4367C43.6123 50.36 44.5684 49.96 45.3048 49.16C46.0412 48.3333 46.4094 47.28 46.4094 46C46.4094 44.7066 46.0412 43.66 45.3048 42.86C44.5684 42.0466 43.6123 41.64 42.4367 41.64H39.7236V50.36ZM62 53H59.0932L58.2792 50.48H52.8724L52.0585 53H49.1709L53.9189 39H57.2327L62 53ZM55.5855 42.18L53.7251 47.9H57.446L55.5855 42.18Z" fill="#F4EEEE"/>
<path id="Vector_29" d="M7.5 47C8.32843 47 9 46.3284 9 45.5C9 44.6716 8.32843 44 7.5 44C6.67157 44 6 44.6716 6 45.5C6 46.3284 6.67157 47 7.5 47Z" fill="#F4EEEE"/>
<path id="Vector_30" d="M80.5 47C81.3284 47 82 46.3284 82 45.5C82 44.6716 81.3284 44 80.5 44C79.6716 44 79 44.6716 79 45.5C79 46.3284 79.6716 47 80.5 47Z" fill="#F4EEEE"/>
</g>
<defs>
<clipPath id="clip0_16_877">
<rect width="90" height="90" fill="white"/>
</clipPath>
</defs>
</svg>
