<svg width="90" height="90" viewBox="0 0 90 90" fill="none" xmlns="http://www.w3.org/2000/svg">
<g id="licenses-logo4.svg">
<path id="Vector" d="M90 45C90 69.8529 70.0766 90 45.5 90C20.9233 90 1 69.8529 1 45C1 20.1471 20.9233 0 45.5 0C70.0766 0 90 20.1471 90 45ZM18.2646 45C18.2646 60.2108 30.4582 72.5415 45.5 72.5415C60.5417 72.5415 72.7355 60.2108 72.7355 45C72.7355 29.7893 60.5417 17.4585 45.5 17.4585C30.4582 17.4585 18.2646 29.7893 18.2646 45Z" fill="#A1203E"/>
<path id="Vector_2" d="M52.5 38.6316C39 41.6842 35.85 51.1016 32.73 58.9926L35.565 60L36.99 56.4895C37.71 56.749 38.46 56.9474 39 56.9474C55.5 56.9474 60 31 60 31C58.5001 34.0526 48 34.4342 40.5 35.9606C33 37.4869 30 43.9737 30 47.0264C30 50.079 32.625 52.75 32.625 52.75C37.5 38.6316 52.5 38.6316 52.5 38.6316Z" fill="#F4EEEE"/>
<path id="Vector_3" d="M69.2635 71.6881L71.4392 74.3157L70.5666 75L67 70.6925L67.6639 70.1719L71.7416 71.318L69.5608 68.6843L70.4334 68L74 72.3075L73.3361 72.8281L69.2635 71.6881Z" fill="#F4EEEE"/>
<path id="Vector_4" d="M59.237 75.8384C59.5556 75.0871 60.0997 74.5537 60.8694 74.2382C61.6389 73.9227 62.4011 73.9206 63.1559 74.232C63.9097 74.5554 64.4445 75.1018 64.7601 75.8709C65.0779 76.645 65.0799 77.4067 64.7664 78.156C64.4498 78.9123 63.9067 79.4482 63.1372 79.7638C62.3675 80.0792 61.6043 80.0787 60.8475 79.7624C60.0927 79.4511 59.5565 78.9084 59.2388 78.1342C58.921 77.36 58.9204 76.5947 59.237 75.8384ZM62.7119 75.2474C62.255 75.0564 61.781 75.0615 61.2899 75.2628C60.7988 75.4642 60.4576 75.7932 60.2665 76.2499C60.0724 76.7137 60.0791 77.1986 60.2868 77.7045C60.4945 78.2105 60.8304 78.5605 61.2945 78.7546C61.7586 78.9485 62.2336 78.9459 62.7198 78.7467C63.2058 78.5474 63.5459 78.2159 63.74 77.7521C63.9341 77.2882 63.9273 76.8034 63.7197 76.2974C63.512 75.7913 63.1761 75.4413 62.7119 75.2474Z" fill="#F4EEEE"/>
<path id="Vector_5" d="M51.351 79.4993L51.7115 82.8862L50.591 83L50 77.4478L50.8526 77.3612L53.6498 80.5086L53.2885 77.1138L54.409 77L55 82.5522L54.1474 82.6388L51.351 79.4993Z" fill="#F4EEEE"/>
<path id="Vector_6" d="M36.8601 79.2122L34.1008 78.2868L34.2459 77.8703C34.5146 77.099 34.9839 76.5586 35.6536 76.2491C36.3233 75.9397 37.0565 75.9185 37.8531 76.1857C38.7021 76.4705 39.313 76.9768 39.6856 77.7048C40.0513 78.4362 40.0979 79.1926 39.8257 79.9742C39.5516 80.7609 39.0444 81.3345 38.3043 81.695C37.5588 82.0537 36.7773 82.096 35.9597 81.8219C35.4514 81.6513 35.0243 81.3818 34.6787 81.0131C34.333 80.6445 34.1067 80.227 34 79.7605L35.1104 79.5471C35.1644 79.8121 35.3009 80.0589 35.5198 80.2873C35.7387 80.5158 36.008 80.6837 36.3276 80.7909C36.857 80.9684 37.3485 80.9437 37.8022 80.7169C38.2522 80.5003 38.5677 80.1323 38.7487 79.613C38.926 79.1039 38.9026 78.6252 38.6783 78.1767C38.4524 77.7334 38.0538 77.4159 37.4825 77.2243C37.0685 77.0854 36.6912 77.0594 36.3507 77.1462C36.0103 77.2331 35.7338 77.4217 35.5213 77.7123L37.1879 78.2712L36.8601 79.2122Z" fill="#F4EEEE"/>
<path id="Vector_7" d="M23.953 76.3696L23 75.6816L26.4028 71L27.3223 71.6637L25.1153 74.7001L28.0173 73.4807L28.1247 73.5583L27.8718 76.6795L30.0738 73.6499L31 74.3184L27.5972 79L26.6442 78.3122L26.9043 75.1247L23.953 76.3696Z" fill="#F4EEEE"/>
<path id="Vector_8" d="M19.3992 64.0284C20.2081 64.1399 20.8653 64.526 21.3708 65.1866C21.8764 65.8473 22.0773 66.5826 21.9735 67.3926C21.8576 68.2049 21.4695 68.8638 20.8088 69.3694C20.1438 69.8783 19.4085 70.0792 18.6029 69.9721C17.7896 69.8639 17.1303 69.4795 16.6247 68.8188C16.1191 68.1581 15.9204 67.4212 16.0286 66.6079C16.1324 65.7978 16.5168 65.1384 17.1818 64.6296C17.8467 64.1206 18.5858 63.9203 19.3992 64.0284ZM20.8767 67.2292C20.942 66.7382 20.8134 66.2818 20.4907 65.8602C20.1681 65.4386 19.7613 65.1952 19.2702 65.1298C18.7716 65.0635 18.3049 65.1966 17.8702 65.5293C17.4356 65.8619 17.1852 66.2776 17.1188 66.7763C17.0525 67.275 17.179 67.733 17.4983 68.1502C17.8176 68.5675 18.2266 68.8093 18.7253 68.8756C19.224 68.9419 19.6906 68.8088 20.1253 68.4762C20.5599 68.1436 20.8104 67.7279 20.8767 67.2292Z" fill="#F4EEEE"/>
<path id="Vector_9" d="M8.5 47C9.32843 47 10 46.3284 10 45.5C10 44.6716 9.32843 44 8.5 44C7.67157 44 7 44.6716 7 45.5C7 46.3284 7.67157 47 8.5 47Z" fill="#F4EEEE"/>
<path id="Vector_10" d="M80.5 47C81.3284 47 82 46.3284 82 45.5C82 44.6716 81.3284 44 80.5 44C79.6716 44 79 44.6716 79 45.5C79 46.3284 79.6716 47 80.5 47Z" fill="#F4EEEE"/>
<path id="Vector_11" d="M19.6694 20.1395L17.1928 17.8074L17.9399 17L22 20.8231L21.4316 21.4374L17.3248 20.855L19.8072 23.1926L19.0601 24L15 20.1769L15.5684 19.5626L19.6694 20.1395Z" fill="#F4EEEE"/>
<path id="Vector_12" d="M28.8953 14.7712C28.6828 15.559 28.2171 16.1618 27.4983 16.5795C26.7796 16.9974 26.0252 17.1038 25.2353 16.8987C24.4446 16.6815 23.8403 16.2137 23.4223 15.4951C23.0017 14.7718 22.8952 14.0176 23.1031 13.2327C23.3128 12.4402 23.7772 11.8351 24.4959 11.4172C25.2146 10.9995 25.9704 10.8954 26.763 11.1052C27.553 11.3102 28.1583 11.7743 28.5789 12.4976C28.9996 13.2209 29.1051 13.9787 28.8953 14.7712ZM25.5356 15.8323C26.0143 15.9589 26.4828 15.8889 26.9415 15.6222C27.4002 15.3556 27.6929 14.9831 27.8196 14.5046C27.9482 14.0186 27.8751 13.5393 27.6002 13.0666C27.3252 12.5938 26.9447 12.2932 26.4586 12.1645C25.9725 12.036 25.5025 12.1036 25.0486 12.3674C24.5946 12.6314 24.3033 13.0062 24.1746 13.4922C24.0459 13.9781 24.1191 14.4575 24.3941 14.9302C24.669 15.4029 25.0496 15.7037 25.5356 15.8323Z" fill="#F4EEEE"/>
<path id="Vector_13" d="M37.2799 10.8731L36.4033 7.28343L37.563 7L39 12.8848L38.1177 13.1004L34.7181 10.1184L35.5967 13.7166L34.4371 14L33 8.11525L33.8824 7.89959L37.2799 10.8731Z" fill="#F4EEEE"/>
<path id="Vector_14" d="M51.1248 8.78439L54 9.34979L53.9113 9.78351C53.747 10.5869 53.3518 11.1859 52.7257 11.5808C52.0996 11.9758 51.3715 12.0916 50.5415 11.9284C49.6568 11.7544 48.9799 11.3288 48.5105 10.6517C48.0477 9.97023 47.8996 9.22246 48.066 8.40849C48.2336 7.58916 48.6622 6.95206 49.3515 6.49717C50.0465 6.04337 50.8199 5.90023 51.6718 6.06775C52.2015 6.17192 52.6635 6.38531 53.0576 6.70792C53.4518 7.03053 53.7333 7.41734 53.9024 7.86837L52.8242 8.22452C52.7347 7.9674 52.5655 7.73916 52.3166 7.53981C52.0677 7.34046 51.7766 7.20802 51.4435 7.14252C50.892 7.03405 50.4053 7.12217 49.9835 7.40688C49.5639 7.68088 49.2988 8.08831 49.1883 8.62917C49.0799 9.15933 49.1675 9.63338 49.4513 10.0513C49.7361 10.4637 50.1762 10.7286 50.7714 10.8456C51.2029 10.9304 51.5824 10.9076 51.9102 10.7771C52.2379 10.6465 52.4883 10.4229 52.6609 10.1059L50.9244 9.76441L51.1248 8.78439Z" fill="#F4EEEE"/>
<path id="Vector_15" d="M63.9319 10.1946L65 10.7685L62.1526 16L61.1221 15.4463L62.9688 12.0533L60.1649 13.686L60.0446 13.6213L59.8807 10.4037L58.0381 13.7892L57 13.2315L59.8474 8L60.9156 8.57391L61.081 11.86L63.9319 10.1946Z" fill="#F4EEEE"/>
<path id="Vector_16" d="M69.9853 21C69.1683 20.9929 68.4667 20.6939 67.8804 20.103C67.2942 19.5122 67.0006 18.8082 67 17.9912C67.0109 17.1703 67.3119 16.4668 67.9027 15.8805C68.4975 15.2904 69.2014 14.9968 70.0146 15C70.8355 15.0033 71.5391 15.3003 72.1253 15.8912C72.7116 16.482 73.0032 17.1879 73 18.0088C73.0006 18.8259 72.7036 19.5295 72.1088 20.1196C71.5141 20.7097 70.8062 21.0032 69.9853 21ZM68.1093 18.013C68.1073 18.5086 68.2935 18.9449 68.6676 19.322C69.0417 19.6991 69.4766 19.8886 69.9722 19.8905C70.4756 19.8925 70.9217 19.7006 71.3104 19.3149C71.6992 18.9292 71.8945 18.4847 71.8965 17.9813C71.8984 17.4779 71.7142 17.0397 71.344 16.6664C70.9737 16.2933 70.5369 16.1057 70.0335 16.1037C69.5302 16.1017 69.084 16.2937 68.6954 16.6793C68.3066 17.065 68.1112 17.5096 68.1093 18.013Z" fill="#F4EEEE"/>
</g>
</svg>
